<svg width="80" height="80" viewBox="0 0 80 80" fill="none" xmlns="http://www.w3.org/2000/svg">
<g clip-path="url(#clip0_28_9)">
<path d="M40 0C17.9091 0 0 17.9091 0 40C0 62.0909 17.9091 80 40 80C62.0909 80 80 62.0909 80 40C80 17.9091 62.0909 0 40 0ZM40 73.3333C21.5909 73.3333 6.66672 58.4091 6.66672 40C6.66672 21.5909 21.5909 6.66672 40 6.66672C58.4091 6.66672 73.3333 21.5909 73.3333 40C73.3333 58.4091 58.4091 73.3333 40 73.3333Z" fill="white"/>
<path d="M62.6667 41.9939C62.7022 41.9465 62.7389 41.9001 62.7719 41.8509C62.8036 41.8034 62.8311 41.7542 62.8602 41.7056C62.8869 41.6609 62.9148 41.6173 62.9395 41.5712C62.9661 41.5217 62.9884 41.4708 63.0123 41.4201C63.035 41.372 63.0591 41.3248 63.0795 41.2756C63.0998 41.2265 63.1163 41.1764 63.1341 41.1267C63.1531 41.0739 63.1733 41.0217 63.1897 40.9676C63.2047 40.9179 63.2158 40.8673 63.2284 40.817C63.2423 40.7619 63.2578 40.7075 63.2689 40.6512C63.2805 40.5931 63.2872 40.5344 63.2956 40.4759C63.3027 40.4269 63.312 40.3787 63.3169 40.3289C63.3384 40.1101 63.3384 39.8898 63.3169 39.6711C63.312 39.6214 63.3027 39.5731 63.2956 39.524C63.2872 39.4654 63.2805 39.4069 63.2689 39.3487C63.2578 39.2926 63.2423 39.2381 63.2284 39.1829C63.2158 39.1326 63.2047 39.0822 63.1897 39.0323C63.1733 38.9783 63.1531 38.9261 63.1341 38.8733C63.1163 38.8236 63.0998 38.7734 63.0795 38.7244C63.0591 38.6751 63.0352 38.6278 63.0123 38.5798C62.9884 38.5292 62.9661 38.4783 62.9395 38.4287C62.9148 38.3828 62.8869 38.339 62.8602 38.2944C62.8311 38.2458 62.8036 38.1965 62.7719 38.149C62.7389 38.0998 62.7022 38.0534 62.6667 38.0061C62.637 37.9664 62.6095 37.9258 62.5778 37.8872C62.5086 37.8028 62.4356 37.7217 62.3586 37.6447C62.358 37.644 62.3577 37.6434 62.357 37.6429L49.0238 24.3097C47.722 23.0079 45.6114 23.0079 44.3097 24.3097C43.008 25.6114 43.008 27.722 44.3097 29.0237L51.9527 36.6667H20C18.1591 36.6667 16.6667 38.159 16.6667 40C16.6667 41.8409 18.1591 43.3333 20 43.3333H51.9527L44.3097 50.9762C43.008 52.2779 43.008 54.3886 44.3097 55.6903C45.6114 56.992 47.722 56.992 49.0238 55.6903L62.357 42.357C62.3577 42.3564 62.358 42.3558 62.3586 42.3553C62.4356 42.2781 62.5086 42.1972 62.5778 42.1128C62.6095 42.0742 62.637 42.0334 62.6667 41.9939Z" fill="white"/>
</g>
<defs>
<clipPath id="clip0_28_9">
<rect width="80" height="80" fill="white"/>
</clipPath>
</defs>
</svg>
