<svg xmlns="http://www.w3.org/2000/svg" viewBox="0 0 750 500"><g id="freepik--background-simple--inject-103"><path d="M137.79,472.38H614.52c7.83-9.35,53.34-68.58,32.94-158.57-22.27-98.29-35.38-99.6-133.67-161.2S381.43,38.6,268.72,80.53,152.08,201.1,157.33,264,90.49,375.4,86.56,414.72C83.4,446.28,110.65,466.84,137.79,472.38Z" style="fill:#DDA900"></path><path d="M137.79,472.38H614.52c7.83-9.35,53.34-68.58,32.94-158.57-22.27-98.29-35.38-99.6-133.67-161.2S381.43,38.6,268.72,80.53,152.08,201.1,157.33,264,90.49,375.4,86.56,414.72C83.4,446.28,110.65,466.84,137.79,472.38Z" style="fill:#fff;opacity:0.7000000000000001"></path></g><g id="freepik--plant-2--inject-103"><path d="M603.62,306.64s-12.29-6.83-13.2,8.64-3.19,116.1-3.19,116.1" style="fill:none;stroke:#263238;stroke-linecap:round;stroke-linejoin:round;stroke-width:2px"></path><path d="M584,316.65s10,22.31,5.47,113.36" style="fill:none;stroke:#263238;stroke-linecap:round;stroke-linejoin:round;stroke-width:2px"></path><path d="M593.89,309.75s-4.71,3-7.38-.43,1.81-9.77-2.14-12.47-10.78,1.42-10.78,1.42,5.25,1.54,5.08,4.41-2.7,4-3,2.7-2.85-7.57-7.12-4.94a10.58,10.58,0,0,0-4.91,6.7s9.93-1.06,10.53,2.68-4.07-.65-8.17-.89-7.84.36-7.57,2.84a32.69,32.69,0,0,1-.39,6.56,12.17,12.17,0,0,1,8-2.82c4.51.26,4.34,3.13.24,2.89s-7.62,3.66-7.62,3.66,3.74,6.39,8.49,9.55,6.46,2,7-.41-.72-8.68,2.15-8.51-4.75,10.83-1.09,11.46,6.61-.44,7.57-2.85l1-2.41s-1.28-6.24-.72-8.68,1.23.07,1.88,3,1.06,9.94,2.31,9.6,5.26-5.45,6.2-7.45-5.28-8.13-5.21-9.36,4.87,1.11,5.62,2.39a31.16,31.16,0,0,1,1.47,3s3-1.88,2.92-7.64S593.89,309.75,593.89,309.75Z" style="fill:#DDA900"></path><path d="M593.89,309.75s-4.71,3-7.38-.43,1.81-9.77-2.14-12.47-10.78,1.42-10.78,1.42,5.25,1.54,5.08,4.41-2.7,4-3,2.7-2.85-7.57-7.12-4.94a10.58,10.58,0,0,0-4.91,6.7s9.93-1.06,10.53,2.68-4.07-.65-8.17-.89-7.84.36-7.57,2.84a32.69,32.69,0,0,1-.39,6.56,12.17,12.17,0,0,1,8-2.82c4.51.26,4.34,3.13.24,2.89s-7.62,3.66-7.62,3.66,3.74,6.39,8.49,9.55,6.46,2,7-.41-.72-8.68,2.15-8.51-4.75,10.83-1.09,11.46,6.61-.44,7.57-2.85l1-2.41s-1.28-6.24-.72-8.68,1.23.07,1.88,3,1.06,9.94,2.31,9.6,5.26-5.45,6.2-7.45-5.28-8.13-5.21-9.36,4.87,1.11,5.62,2.39a31.16,31.16,0,0,1,1.47,3s3-1.88,2.92-7.64S593.89,309.75,593.89,309.75Z" style="fill:#263238;opacity:0.30000000000000004"></path><path d="M570.05,323.26c3.07-3.79,7.58-8.92,11.37-11.37" style="fill:none;stroke:#263238;stroke-linecap:round;stroke-linejoin:round"></path><path d="M566.49,327.88s.79-1.1,2.07-2.74" style="fill:none;stroke:#263238;stroke-linecap:round;stroke-linejoin:round"></path><path d="M583.42,312.83s4.56,6.44,5.4,13.07" style="fill:none;stroke:#263238;stroke-linecap:round;stroke-linejoin:round"></path><path d="M578.26,316.64s1.28-.74.8,7.45" style="fill:none;stroke:#263238;stroke-linecap:round;stroke-linejoin:round"></path><path d="M581.59,309s2.6-2.32,1.23-6.92" style="fill:none;stroke:#263238;stroke-linecap:round;stroke-linejoin:round"></path><line x1="578.07" y1="312.93" x2="576.21" y2="309.53" style="fill:none;stroke:#263238;stroke-linecap:round;stroke-linejoin:round"></line><path d="M574.16,316.4s-5.9-4.46-9.59-4.68" style="fill:none;stroke:#263238;stroke-linecap:round;stroke-linejoin:round"></path><path d="M610.65,297.6s-.19,6.76-5.47,7.09-8.54-8.46-13.94-6.35-5.92,11.76-5.92,11.76,5.12-4.21,7.88-2.08,2.12,5.4.63,4.88-9.52-2.31-9.79,3.75a12.8,12.8,0,0,0,3.35,9.49s5.71-10.66,9.87-8.72-3.43,3.63-6.47,7.57-5,8.09-2.31,9.52a39.58,39.58,0,0,1,6.3,4.86s-.72-5.58,2.62-9.91,6.09-2.21,3.06,1.73-1.53,10.12-1.53,10.12,8.94.62,15.34-2,6.44-5.09,4.38-7.31-9.18-5.19-7.06-7.95,7.6,12.14,10.73,8.9,4.06-6.91,2.31-9.52l-1.76-2.61s-7.12-3-9.18-5.19.91-1.19,4.28.15,10.66,5.71,11.18,4.23-1.87-9-3.23-11.28-11.74-.26-12.92-1.17,4.43-4.12,6.22-4,4,.55,4,.55.16-4.27-5.66-8.13S610.65,297.6,610.65,297.6Z" style="fill:#DDA900"></path><path d="M610.65,297.6s-.19,6.76-5.47,7.09-8.54-8.46-13.94-6.35-5.92,11.76-5.92,11.76,5.12-4.21,7.88-2.08,2.12,5.4.63,4.88-9.52-2.31-9.79,3.75a12.8,12.8,0,0,0,3.35,9.49s5.71-10.66,9.87-8.72-3.43,3.63-6.47,7.57-5,8.09-2.31,9.52a39.58,39.58,0,0,1,6.3,4.86s-.72-5.58,2.62-9.91,6.09-2.21,3.06,1.73-1.53,10.12-1.53,10.12,8.94.62,15.34-2,6.44-5.09,4.38-7.31-9.18-5.19-7.06-7.95,7.6,12.14,10.73,8.9,4.06-6.91,2.31-9.52l-1.76-2.61s-7.12-3-9.18-5.19.91-1.19,4.28.15,10.66,5.71,11.18,4.23-1.87-9-3.23-11.28-11.74-.26-12.92-1.17,4.43-4.12,6.22-4,4,.55,4,.55.16-4.27-5.66-8.13S610.65,297.6,610.65,297.6Z" style="fill:#263238;opacity:0.2"></path><path d="M607.92,330.68c-1.7-5.66-3.76-13.68-3.62-19.14" style="fill:none;stroke:#263238;stroke-linecap:round;stroke-linejoin:round"></path><path d="M610.12,337.38s-.56-1.53-1.33-3.93" style="fill:none;stroke:#263238;stroke-linecap:round;stroke-linejoin:round"></path><path d="M606.6,310.18s9.55-.17,16.76,3.5" style="fill:none;stroke:#263238;stroke-linecap:round;stroke-linejoin:round"></path><path d="M606.9,317.94s.12-1.78,8,4.29" style="fill:none;stroke:#263238;stroke-linecap:round;stroke-linejoin:round"></path><path d="M601.54,309.42s-.54-4.19-6.09-5.95" style="fill:none;stroke:#263238;stroke-linecap:round;stroke-linejoin:round"></path><line x1="603.05" y1="315.61" x2="598.38" y2="315.15" style="fill:none;stroke:#263238;stroke-linecap:round;stroke-linejoin:round"></line><path d="M603.86,321.88s-8.49,2.88-11.22,6.42" style="fill:none;stroke:#263238;stroke-linecap:round;stroke-linejoin:round"></path><path d="M554,342.6s26.86,17.76,26.4,86.5" style="fill:none;stroke:#263238;stroke-linecap:round;stroke-linejoin:round;stroke-width:2px"></path><path d="M587.12,337.91s-.86,7.78-7,7.67-9.06-10.58-15.48-8.65-7.95,13-7.95,13,6.31-4.37,9.3-1.66,1.93,6.43.26,5.69-10.76-3.56-11.65,3.41a14.8,14.8,0,0,0,3,11.27s7.6-11.77,12.21-9.14-4.3,3.87-8.18,8.13-6.51,8.87-3.57,10.77a45.19,45.19,0,0,1,6.82,6.2s-.31-6.51,4-11.19,7.24-2,3.37,2.28-2.72,11.54-2.72,11.54,10.27,1.56,17.9-.84,7.9-5.26,5.73-8-10.1-6.86-7.39-9.84,7.62,14.72,11.54,11.28,5.34-7.59,3.56-10.77L599,365.88s-7.93-4.11-10.1-6.86,1.16-1.28,4.92.58,11.77,7.6,12.5,5.93S605,355,603.69,352.21s-13.52-1.4-14.8-2.56,5.51-4.34,7.56-4a44.47,44.47,0,0,1,4.53,1s.58-4.92-5.77-9.92S587.12,337.91,587.12,337.91Z" style="fill:#DDA900"></path><path d="M587.12,337.91s-.86,7.78-7,7.67-9.06-10.58-15.48-8.65-7.95,13-7.95,13,6.31-4.37,9.3-1.66,1.93,6.43.26,5.69-10.76-3.56-11.65,3.41a14.8,14.8,0,0,0,3,11.27s7.6-11.77,12.21-9.14-4.3,3.87-8.18,8.13-6.51,8.87-3.57,10.77a45.19,45.19,0,0,1,6.82,6.2s-.31-6.51,4-11.19,7.24-2,3.37,2.28-2.72,11.54-2.72,11.54,10.27,1.56,17.9-.84,7.9-5.26,5.73-8-10.1-6.86-7.39-9.84,7.62,14.72,11.54,11.28,5.34-7.59,3.56-10.77L599,365.88s-7.93-4.11-10.1-6.86,1.16-1.28,4.92.58,11.77,7.6,12.5,5.93S605,355,603.69,352.21s-13.52-1.4-14.8-2.56,5.51-4.34,7.56-4a44.47,44.47,0,0,1,4.53,1s.58-4.92-5.77-9.92S587.12,337.91,587.12,337.91Z" style="fill:#263238;opacity:0.30000000000000004"></path><path d="M580.86,375.82c-1.44-6.68-3.05-16.13-2.39-22.42" style="fill:none;stroke:#263238;stroke-linecap:round;stroke-linejoin:round"></path><path d="M582.76,383.76s-.5-1.82-1.17-4.66" style="fill:none;stroke:#263238;stroke-linecap:round;stroke-linejoin:round"></path><path d="M581.26,352s11,.71,19,5.63" style="fill:none;stroke:#263238;stroke-linecap:round;stroke-linejoin:round"></path><path d="M580.87,361s.31-2,8.83,5.7" style="fill:none;stroke:#263238;stroke-linecap:round;stroke-linejoin:round"></path><path d="M575.49,350.69s-.23-4.88-6.46-7.44" style="fill:none;stroke:#263238;stroke-linecap:round;stroke-linejoin:round"></path><line x1="576.65" y1="357.97" x2="571.31" y2="357" style="fill:none;stroke:#263238;stroke-linecap:round;stroke-linejoin:round"></line><path d="M577,365.29s-10.07,2.51-13.56,6.34" style="fill:none;stroke:#263238;stroke-linecap:round;stroke-linejoin:round"></path><path d="M564.47,396.78s17.3,13.2,19.12,32.78L580,364" style="fill:none;stroke:#263238;stroke-linecap:round;stroke-linejoin:round;stroke-width:2px"></path><path d="M606.35,387.22c-22.76-4.1-22.76,42.34-22.76,42.34" style="fill:none;stroke:#263238;stroke-linecap:round;stroke-linejoin:round;stroke-width:2px"></path><path d="M586.32,429.1s-13.2-96.06,25-96.06" style="fill:none;stroke:#263238;stroke-linecap:round;stroke-linejoin:round;stroke-width:2px"></path><path d="M597.68,384.45c-3.11-3.49-9.72-3.49-13.6,5.45s-.39,7.38-.39,7.38,7.38-2.33,12-3.89,10.88-5.44,11.27-3.1-3.11,4.66-7.39,5.44-15.54,3.88-14.38,6.22,3.89,9.32,3.89,9.32a99.3,99.3,0,0,1,10.49-7.77c5.06-3.11,8.17-1.94,5.45,1.55s-10.5,7.39-8.94,12.05S607,427.6,607,427.6s1.16-9.72,3.89-12.83,2.72.39,1.94,5.83a63,63,0,0,0-.78,7l10.88,3.88a77.69,77.69,0,0,1,5.83-7.77l2-1.94s-8.55-7.39-8.94-12,5.83,0,7.77.78,5.05,6.21,5.05,6.21,1.95-8.93,2.34-12l.39-3.11s-8.17-3.11-11.28-3.11-4.66,2.33-4.66-.78,3.11-5.05,6.61-4.66a59.65,59.65,0,0,1,9.33,2.33s2.33-1.95,1.55-7.78-2.72-5.83-7.38-4.27-7.78,5-11.28,5-1.55-4.27.78-5.44,8.16-3.5,9.33-3.89-6.22-5.83-10.11-6.6-8.92,2-8.55,5.83C612.45,386.4,600.79,388,597.68,384.45Z" style="fill:#DDA900"></path><path d="M622.7,424.47c.12,1.17.2,2.35.24,3.52" style="fill:none;stroke:#263238;stroke-linecap:round;stroke-linejoin:round"></path><path d="M614.89,396.57a103,103,0,0,1,7.32,24.09" style="fill:none;stroke:#263238;stroke-linecap:round;stroke-linejoin:round"></path><path d="M613.49,393.45c-1.92-4.14-3.37-6.66-3.37-6.66a11.5,11.5,0,0,0,5-4.67,13,13,0,0,1,3.89-4.66" style="fill:none;stroke:#263238;stroke-linecap:round;stroke-linejoin:round"></path><path d="M596.51,400s14-5.83,14-4.66" style="fill:none;stroke:#263238;stroke-linecap:round;stroke-linejoin:round"></path><path d="M618.28,392.62s6.22-3.11,11.66-3.11" style="fill:none;stroke:#263238;stroke-linecap:round;stroke-linejoin:round"></path><path d="M616,402a53.94,53.94,0,0,0-7.39,7.38,33.6,33.6,0,0,0-5.44,8.94" style="fill:none;stroke:#263238;stroke-linecap:round;stroke-linejoin:round"></path><path d="M620.22,403.5s8.17-2.33,12.44,1.55" style="fill:none;stroke:#263238;stroke-linecap:round;stroke-linejoin:round"></path><path d="M635,351c-4.23-2.5-8.91-2.56-11.21-5.2s2.21-4,4.62-3,8,3.87,9.05,4.5.33-8.52-1.63-12-7.33-5.45-10-2.64c-5.65,5.94-14.47-1.85-13.87-6.49s-3.73-9.63-13-6.7-5.83,4.54-5.83,4.54,6.6,4.05,10.84,6.56,11.24,4.65,9.73,6.47-5.56.71-8.95-2-13.12-9.19-14.12-6.78-4.5,9-4.5,9a98.52,98.52,0,0,1,12.75,2.83c5.66,1.77,6.82,4.88,2.4,5.12s-12.46-3.08-15,1.15-.79,15.1-.79,15.1,8.1-5.49,12.23-5.47,1.49,2.31-3.13,5.29a64.56,64.56,0,0,0-5.79,4l4.2,10.77a76.38,76.38,0,0,1,9.69-.69l2.74.19s0-11.3,3.24-14.65,3.82,4.4,4.51,6.38-1.38,7.89-1.38,7.89,8-4.39,10.62-6.13l2.61-1.75s-3-8.2-5-10.55-4.81-2-2.47-4,5.86-1,7.86,1.93a60.64,60.64,0,0,1,4.35,8.57s3,.49,6.89-3.92S639.24,353.49,635,351Zm-36.78,12.44c-3.11-1.55,4.27-4.66,4.27-4.66C605.22,358.37,601.33,365,598.23,363.42Zm5.23-14.51c-1.32-.66,2.65-2,2.65-2C611.86,348,604.79,349.58,603.46,348.91Z" style="fill:#DDA900"></path><path d="M598.14,371.34q-1.21,1.29-2.49,2.49" style="fill:none;stroke:#263238;stroke-linecap:round;stroke-linejoin:round"></path><path d="M614.09,347.15a102.64,102.64,0,0,1-13.39,21.32" style="fill:none;stroke:#263238;stroke-linecap:round;stroke-linejoin:round"></path><path d="M615.53,344.05c1.87-4.17,2.82-6.92,2.82-6.92a11.46,11.46,0,0,0,6.84.76,13,13,0,0,1,6.07-.12" style="fill:none;stroke:#263238;stroke-linecap:round;stroke-linejoin:round"></path><path d="M612.15,343c.88-.76-12.69-7.51-12.69-7.51" style="fill:none;stroke:#263238;stroke-linecap:round;stroke-linejoin:round"></path><path d="M619.3,347.12s6.43,2.66,10,6.77" style="fill:none;stroke:#263238;stroke-linecap:round;stroke-linejoin:round"></path><path d="M610.73,351.47a54.41,54.41,0,0,0-10.42-.73A33.44,33.44,0,0,0,590,352.49" style="fill:none;stroke:#263238;stroke-linecap:round;stroke-linejoin:round"></path><path d="M612.36,355.72s7.11,4.64,7,10.41" style="fill:none;stroke:#263238;stroke-linecap:round;stroke-linejoin:round"></path><path d="M574.61,404.84c-3.4-2-7.17-2.06-9-4.19s1.77-3.2,3.71-2.39,6.43,3.11,7.29,3.61.26-6.85-1.32-9.62-5.9-4.39-8-2.12c-4.55,4.77-11.65-1.49-11.16-5.23s-3-7.75-10.49-5.39-4.69,3.66-4.69,3.66,5.31,3.26,8.72,5.27,9,3.74,7.83,5.21-4.47.57-7.2-1.62-10.56-7.4-11.37-5.46-3.61,7.29-3.61,7.29a79.28,79.28,0,0,1,10.26,2.27c4.55,1.43,5.48,3.94,1.92,4.13s-10-2.48-12,.92-.63,12.15-.63,12.15,6.52-4.41,9.84-4.4,1.2,1.86-2.51,4.26a51.22,51.22,0,0,0-4.67,3.21l3.38,8.67a61.53,61.53,0,0,1,7.8-.56l2.21.16s0-9.1,2.61-11.79,3.07,3.54,3.62,5.13-1.11,6.35-1.11,6.35,6.46-3.53,8.55-4.94l2.1-1.4s-2.42-6.6-4.06-8.49-3.88-1.61-2-3.25,4.71-.77,6.32,1.56a49,49,0,0,1,3.51,6.9s2.41.39,5.54-3.16S578,406.85,574.61,404.84Zm-29.6,10c-2.5-1.25,3.44-3.75,3.44-3.75C550.64,410.78,547.51,416.1,545,414.85Zm4.22-11.68c-1.07-.53,2.13-1.6,2.13-1.6C556,402.46,550.29,403.71,549.23,403.17Z" style="fill:#DDA900"></path><path d="M545,421.22c-.65.69-1.32,1.36-2,2" style="fill:none;stroke:#263238;stroke-linecap:round;stroke-linejoin:round"></path><path d="M557.78,401.76A83,83,0,0,1,547,418.91" style="fill:none;stroke:#263238;stroke-linecap:round;stroke-linejoin:round"></path><path d="M558.94,399.26c1.5-3.35,2.27-5.57,2.27-5.57a9.21,9.21,0,0,0,5.5.61,10.5,10.5,0,0,1,4.88-.1" style="fill:none;stroke:#263238;stroke-linecap:round;stroke-linejoin:round"></path><path d="M546,392.4s10.93,5.43,10.22,6" style="fill:none;stroke:#263238;stroke-linecap:round;stroke-linejoin:round"></path><path d="M562,401.73s5.17,2.14,8,5.44" style="fill:none;stroke:#263238;stroke-linecap:round;stroke-linejoin:round"></path><path d="M555.07,405.23a43.16,43.16,0,0,0-8.38-.59,27,27,0,0,0-8.3,1.41" style="fill:none;stroke:#263238;stroke-linecap:round;stroke-linejoin:round"></path><path d="M556.38,408.65s5.73,3.73,5.62,8.38" style="fill:none;stroke:#263238;stroke-linecap:round;stroke-linejoin:round"></path><path d="M560.73,340.66s-4.28,3.11-7,0S554.9,331.33,551,329s-10.1,1.94-10.1,1.94,5.05,1.17,5.05,3.89-2.33,3.88-2.72,2.72-3.11-7-7-4.28a10,10,0,0,0-4.27,6.61s9.32-1.56,10.1,1.94-3.89-.39-7.77-.39-7.39.78-7,3.11a30.52,30.52,0,0,1,0,6.22,11.56,11.56,0,0,1,7.39-3.11c4.27,0,4.27,2.72.39,2.72s-7,3.89-7,3.89,3.89,5.83,8.55,8.55,6.22,1.56,6.61-.78-1.17-8.16,1.55-8.16-3.88,10.5-.39,10.88,6.22-.77,7-3.11l.78-2.33s-1.56-5.83-1.17-8.16,1.17,0,1.94,2.72,1.56,9.33,2.72,8.94,4.67-5.44,5.45-7.38-5.45-7.39-5.45-8.55,4.67.77,5.45,1.94a30.71,30.71,0,0,1,1.55,2.72s2.72-1.94,2.33-7.39S560.73,340.66,560.73,340.66Z" style="fill:#DDA900"></path><path d="M539,354.75c2.69-3.75,6.67-8.85,10.12-11.37" style="fill:none;stroke:#263238;stroke-linecap:round;stroke-linejoin:round"></path><path d="M535.85,359.31s.69-1.08,1.8-2.7" style="fill:none;stroke:#263238;stroke-linecap:round;stroke-linejoin:round"></path><path d="M551,344.15s4.66,5.83,5.83,12.05" style="fill:none;stroke:#263238;stroke-linecap:round;stroke-linejoin:round"></path><path d="M546.35,348s1.16-.78,1.16,7" style="fill:none;stroke:#263238;stroke-linecap:round;stroke-linejoin:round"></path><path d="M549.07,340.66s2.33-2.34.77-6.61" style="fill:none;stroke:#263238;stroke-linecap:round;stroke-linejoin:round"></path><line x1="545.96" y1="344.54" x2="544.01" y2="341.43" style="fill:none;stroke:#263238;stroke-linecap:round;stroke-linejoin:round"></line><path d="M542.46,348s-5.83-3.89-9.33-3.89" style="fill:none;stroke:#263238;stroke-linecap:round;stroke-linejoin:round"></path><rect x="569.93" y="427.73" width="30.05" height="43.25" style="fill:#263238;stroke:#263238;stroke-linecap:round;stroke-linejoin:round;stroke-width:2px"></rect></g><g id="freepik--plant-1--inject-103"><path d="M329.32,95.38s.36-12.78-.09-23.77.46-34.55.46-34.55" style="fill:none;stroke:#263238;stroke-miterlimit:10"></path><line x1="329.48" y1="50.92" x2="324.49" y2="46.99" style="fill:none;stroke:#263238;stroke-miterlimit:10"></line><line x1="329.42" y1="53.62" x2="331.2" y2="50.75" style="fill:none;stroke:#263238;stroke-miterlimit:10"></line><line x1="329.02" y1="64.99" x2="333.45" y2="61.32" style="fill:none;stroke:#263238;stroke-miterlimit:10"></line><line x1="329.69" y1="41.89" x2="327.35" y2="39.76" style="fill:none;stroke:#263238;stroke-miterlimit:10"></line><line x1="328.98" y1="66.98" x2="326.05" y2="63.84" style="fill:none;stroke:#263238;stroke-miterlimit:10"></line><line x1="329.23" y1="79.32" x2="323.14" y2="73.76" style="fill:none;stroke:#263238;stroke-miterlimit:10"></line><path d="M329.39,86.17a37.35,37.35,0,0,0,4.52-2.11" style="fill:none;stroke:#263238;stroke-miterlimit:10"></path><path d="M326,52.89c-2.45-1.89-10.67-1.56-12.25,2.37S317.2,65.6,322,65.15c1.89-.18,2.71-.31,3.45-1.37h0l-6.75-6.6,7.31,5.88a6.66,6.66,0,0,0,.5-1.2c.08-.29.16-.61.22-.94C327.24,58.57,328.31,54.66,326,52.89Z" style="fill:#DDA900"></path><path d="M341.91,48.33l0,.14c-.66,2.93-4,4.59-6.83,4.34a6.25,6.25,0,0,1-1.16-.21,8,8,0,0,0-.72,7.1,4.35,4.35,0,0,0,.47.94c.83-.68,9.71-8.26,9.71-8.26l-9.22,8.88c2.78,3,9.3,2.57,11.57-2.94S345.11,49.12,341.91,48.33Z" style="fill:#DDA900"></path><path d="M337.39,38.08c-4.78-1-9.06,1.12-9,6.11A8.06,8.06,0,0,0,331.07,50L336,43.28l-4.14,7.33a6.6,6.6,0,0,0,3.12,1.12c2.82.24,6.17-1.42,6.83-4.35C342.5,44.11,342.17,39.13,337.39,38.08Z" style="fill:#DDA900"></path><path d="M331.81,20.73s-.49.15-3.55,1.64a7.74,7.74,0,0,0-3.06,10.48,7.25,7.25,0,0,0,4.09,3.58l1.23-11.89L330,36.59a3.42,3.42,0,0,0,.7,0c2-.2,5.13-2.58,5.43-7.45S331.81,20.73,331.81,20.73Z" style="fill:#DDA900"></path><path d="M317.84,31.54l9.23,7.38a2.75,2.75,0,0,0,.09-1c-.43-4.22-4.64-6.67-7.42-7.55s-4.71.69-2.92,4.73,6.48,6,8.57,5.39a2.49,2.49,0,0,0,1.28-.78Z" style="fill:#DDA900"></path><path d="M324.19,41a9.37,9.37,0,0,1-7.09-4.1A3.77,3.77,0,0,0,313,40.21c-.94,4.4,2.24,9,6.83,8.44A6.09,6.09,0,0,0,323.69,47l-8.2-7.49,8.78,6.69a2.66,2.66,0,0,0,.32-1A7.29,7.29,0,0,0,324.19,41Z" style="fill:#DDA900"></path><path d="M324.14,65.47a7.11,7.11,0,0,1-2.35.56c-3,.28-6.06-2.07-7.58-4.83a4,4,0,0,0-3.67,3.3c-.91,5.15,3.86,11.94,8.68,10.86a6.86,6.86,0,0,0,3.35-1.7L312.05,63.54,323.18,73a5.9,5.9,0,0,0,1.19-2.81A6.41,6.41,0,0,0,324.14,65.47Z" style="fill:#DDA900"></path><path d="M345.31,76c-3.54-4.1-7.75-.43-7.75-.43s-2.58.85-3.56,4.51a5.66,5.66,0,0,0,.13,3.37l10.64-6.2-10.38,6.78c1,1.84,3.08,3,6,2.15C345.05,84.9,348.84,80.13,345.31,76Z" style="fill:#DDA900"></path><rect x="321.76" y="91.52" width="14.73" height="21.81" style="fill:#263238"></rect></g><g id="freepik--Bookshelf--inject-103"><rect x="304.79" y="113.15" width="194.28" height="359.23" style="fill:#DDA900;stroke:#263238;stroke-miterlimit:10"></rect><rect x="308.83" y="117.7" width="162.84" height="349.21" style="fill:#263238;stroke:#263238;stroke-linecap:round;stroke-linejoin:round"></rect><rect x="308.83" y="171.86" width="162.84" height="5.15" style="fill:#DDA900;stroke:#263238;stroke-miterlimit:10"></rect><rect x="308.83" y="231.4" width="162.84" height="5.15" style="fill:#DDA900;stroke:#263238;stroke-miterlimit:10"></rect><rect x="415.73" y="117.76" width="3.46" height="54.09" style="fill:#DDA900;stroke:#263238;stroke-miterlimit:10"></rect><rect x="360.37" y="117.76" width="3.46" height="54.09" style="fill:#DDA900;stroke:#263238;stroke-miterlimit:10"></rect><rect x="415.73" y="236.61" width="3.46" height="54.09" style="fill:#DDA900;stroke:#263238;stroke-miterlimit:10"></rect><rect x="360.37" y="236.61" width="3.46" height="54.09" style="fill:#DDA900;stroke:#263238;stroke-miterlimit:10"></rect><rect x="387.78" y="177.3" width="3.46" height="54.09" style="fill:#DDA900;stroke:#263238;stroke-miterlimit:10"></rect><rect x="308.83" y="290.71" width="162.84" height="5.15" style="fill:#DDA900;stroke:#263238;stroke-miterlimit:10"></rect><rect x="308.83" y="350.05" width="162.84" height="118.68" style="fill:#DDA900;stroke:#263238;stroke-miterlimit:10"></rect><rect x="387.78" y="295.95" width="3.46" height="54.09" style="fill:#DDA900;stroke:#263238;stroke-miterlimit:10"></rect><polygon points="475.66 113.12 475.66 472.3 499.08 472.38 499.08 113.12 475.66 113.12" style="fill:#263238;stroke:#263238;stroke-linecap:round;stroke-linejoin:round"></polygon><rect x="421.59" y="121.96" width="8.36" height="49.77" style="fill:#fff;stroke:#263238;stroke-miterlimit:10"></rect><rect x="421.59" y="161.04" width="8.36" height="4.08" style="fill:#fff;stroke:#263238;stroke-miterlimit:10"></rect><rect x="421.59" y="127.01" width="8.36" height="4.08" style="fill:#fff;stroke:#263238;stroke-miterlimit:10"></rect><rect x="430.14" y="121.96" width="8.36" height="49.77" style="fill:#fff;stroke:#263238;stroke-miterlimit:10"></rect><rect x="430.14" y="161.04" width="8.36" height="4.08" style="fill:#fff;stroke:#263238;stroke-miterlimit:10"></rect><rect x="430.14" y="127.01" width="8.36" height="4.08" style="fill:#fff;stroke:#263238;stroke-miterlimit:10"></rect><rect x="438.7" y="121.96" width="8.36" height="49.77" style="fill:#fff;stroke:#263238;stroke-miterlimit:10"></rect><rect x="438.7" y="161.04" width="8.36" height="4.08" style="fill:#fff;stroke:#263238;stroke-miterlimit:10"></rect><rect x="438.7" y="127.01" width="8.36" height="4.08" style="fill:#fff;stroke:#263238;stroke-miterlimit:10"></rect><rect x="447.25" y="121.96" width="8.36" height="49.77" style="fill:#fff;stroke:#263238;stroke-miterlimit:10"></rect><rect x="455.54" y="121.96" width="14" height="49.77" style="fill:#fff;stroke:#263238;stroke-miterlimit:10"></rect><rect x="447.25" y="161.04" width="8.36" height="4.08" style="fill:#fff;stroke:#263238;stroke-miterlimit:10"></rect><rect x="447.25" y="127.01" width="8.36" height="4.08" style="fill:#fff;stroke:#263238;stroke-miterlimit:10"></rect><rect x="365.66" y="121.96" width="8.36" height="49.77" style="fill:#fff;stroke:#263238;stroke-miterlimit:10"></rect><rect x="365.66" y="161.04" width="8.36" height="4.08" style="fill:#fff;stroke:#263238;stroke-miterlimit:10"></rect><rect x="365.66" y="127.01" width="8.36" height="4.08" style="fill:#fff;stroke:#263238;stroke-miterlimit:10"></rect><rect x="374.21" y="121.96" width="8.36" height="49.77" style="fill:#fff;stroke:#263238;stroke-miterlimit:10"></rect><rect x="374.21" y="161.04" width="8.36" height="4.08" style="fill:#fff;stroke:#263238;stroke-miterlimit:10"></rect><rect x="374.21" y="127.01" width="8.36" height="4.08" style="fill:#fff;stroke:#263238;stroke-miterlimit:10"></rect><rect x="382.77" y="121.96" width="8.36" height="49.77" style="fill:#fff;stroke:#263238;stroke-miterlimit:10"></rect><rect x="382.77" y="161.04" width="8.36" height="4.08" style="fill:#fff;stroke:#263238;stroke-miterlimit:10"></rect><rect x="382.77" y="127.01" width="8.36" height="4.08" style="fill:#fff;stroke:#263238;stroke-miterlimit:10"></rect><rect x="391.32" y="121.96" width="8.36" height="49.77" style="fill:#fff;stroke:#263238;stroke-miterlimit:10"></rect><rect x="399.61" y="121.96" width="14" height="49.77" style="fill:#fff;stroke:#263238;stroke-miterlimit:10"></rect><rect x="391.32" y="161.04" width="8.36" height="4.08" style="fill:#fff;stroke:#263238;stroke-miterlimit:10"></rect><rect x="391.32" y="127.01" width="8.36" height="4.08" style="fill:#fff;stroke:#263238;stroke-miterlimit:10"></rect><rect x="365.66" y="240.99" width="8.36" height="49.77" style="fill:#fff;stroke:#263238;stroke-miterlimit:10"></rect><rect x="365.66" y="280.07" width="8.36" height="4.08" style="fill:#fff;stroke:#263238;stroke-miterlimit:10"></rect><rect x="365.66" y="246.05" width="8.36" height="4.08" style="fill:#fff;stroke:#263238;stroke-miterlimit:10"></rect><rect x="374.21" y="240.99" width="8.36" height="49.77" style="fill:#fff;stroke:#263238;stroke-miterlimit:10"></rect><rect x="374.21" y="280.07" width="8.36" height="4.08" style="fill:#fff;stroke:#263238;stroke-miterlimit:10"></rect><rect x="374.21" y="246.05" width="8.36" height="4.08" style="fill:#fff;stroke:#263238;stroke-miterlimit:10"></rect><rect x="382.77" y="240.99" width="8.36" height="49.77" style="fill:#fff;stroke:#263238;stroke-miterlimit:10"></rect><rect x="382.77" y="280.07" width="8.36" height="4.08" style="fill:#fff;stroke:#263238;stroke-miterlimit:10"></rect><rect x="382.77" y="246.05" width="8.36" height="4.08" style="fill:#fff;stroke:#263238;stroke-miterlimit:10"></rect><rect x="391.32" y="240.99" width="8.36" height="49.77" style="fill:#fff;stroke:#263238;stroke-miterlimit:10"></rect><rect x="399.61" y="240.99" width="14" height="49.77" style="fill:#fff;stroke:#263238;stroke-miterlimit:10"></rect><rect x="391.32" y="280.07" width="8.36" height="4.08" style="fill:#fff;stroke:#263238;stroke-miterlimit:10"></rect><rect x="391.32" y="246.05" width="8.36" height="4.08" style="fill:#fff;stroke:#263238;stroke-miterlimit:10"></rect><rect x="420.87" y="240.99" width="8.36" height="49.77" style="fill:#fff;stroke:#263238;stroke-miterlimit:10"></rect><rect x="420.87" y="280.07" width="8.36" height="4.08" style="fill:#fff;stroke:#263238;stroke-miterlimit:10"></rect><rect x="420.87" y="246.05" width="8.36" height="4.08" style="fill:#fff;stroke:#263238;stroke-miterlimit:10"></rect><rect x="429.43" y="240.99" width="8.36" height="49.77" style="fill:#fff;stroke:#263238;stroke-miterlimit:10"></rect><rect x="429.43" y="280.07" width="8.36" height="4.08" style="fill:#fff;stroke:#263238;stroke-miterlimit:10"></rect><rect x="429.43" y="246.05" width="8.36" height="4.08" style="fill:#fff;stroke:#263238;stroke-miterlimit:10"></rect><rect x="437.98" y="240.99" width="8.36" height="49.77" style="fill:#fff;stroke:#263238;stroke-miterlimit:10"></rect><rect x="437.98" y="280.07" width="8.36" height="4.08" style="fill:#fff;stroke:#263238;stroke-miterlimit:10"></rect><rect x="437.98" y="246.05" width="8.36" height="4.08" style="fill:#fff;stroke:#263238;stroke-miterlimit:10"></rect><rect x="446.54" y="240.99" width="8.36" height="49.77" style="fill:#fff;stroke:#263238;stroke-miterlimit:10"></rect><rect x="454.82" y="240.99" width="14" height="49.77" style="fill:#fff;stroke:#263238;stroke-miterlimit:10"></rect><rect x="446.54" y="280.07" width="8.36" height="4.08" style="fill:#fff;stroke:#263238;stroke-miterlimit:10"></rect><rect x="446.54" y="246.05" width="8.36" height="4.08" style="fill:#fff;stroke:#263238;stroke-miterlimit:10"></rect><rect x="310.8" y="240.99" width="8.36" height="49.77" style="fill:#fff;stroke:#263238;stroke-miterlimit:10"></rect><rect x="310.8" y="280.07" width="8.36" height="4.08" style="fill:#fff;stroke:#263238;stroke-miterlimit:10"></rect><rect x="310.8" y="246.05" width="8.36" height="4.08" style="fill:#fff;stroke:#263238;stroke-miterlimit:10"></rect><rect x="319.36" y="240.99" width="8.36" height="49.77" style="fill:#fff;stroke:#263238;stroke-miterlimit:10"></rect><rect x="319.36" y="280.07" width="8.36" height="4.08" style="fill:#fff;stroke:#263238;stroke-miterlimit:10"></rect><rect x="319.36" y="246.05" width="8.36" height="4.08" style="fill:#fff;stroke:#263238;stroke-miterlimit:10"></rect><rect x="327.91" y="240.99" width="8.36" height="49.77" style="fill:#fff;stroke:#263238;stroke-miterlimit:10"></rect><rect x="327.91" y="280.07" width="8.36" height="4.08" style="fill:#fff;stroke:#263238;stroke-miterlimit:10"></rect><rect x="327.91" y="246.05" width="8.36" height="4.08" style="fill:#fff;stroke:#263238;stroke-miterlimit:10"></rect><rect x="336.47" y="240.99" width="8.36" height="49.77" style="fill:#fff;stroke:#263238;stroke-miterlimit:10"></rect><rect x="344.75" y="240.99" width="14" height="49.77" style="fill:#fff;stroke:#263238;stroke-miterlimit:10"></rect><rect x="336.47" y="280.07" width="8.36" height="4.08" style="fill:#fff;stroke:#263238;stroke-miterlimit:10"></rect><rect x="336.47" y="246.05" width="8.36" height="4.08" style="fill:#fff;stroke:#263238;stroke-miterlimit:10"></rect><rect x="309.73" y="121.96" width="8.36" height="49.77" style="fill:#fff;stroke:#263238;stroke-miterlimit:10"></rect><rect x="309.73" y="161.04" width="8.36" height="4.08" style="fill:#fff;stroke:#263238;stroke-miterlimit:10"></rect><rect x="309.73" y="127.01" width="8.36" height="4.08" style="fill:#fff;stroke:#263238;stroke-miterlimit:10"></rect><rect x="318.28" y="121.96" width="8.36" height="49.77" style="fill:#fff;stroke:#263238;stroke-miterlimit:10"></rect><rect x="318.28" y="161.04" width="8.36" height="4.08" style="fill:#fff;stroke:#263238;stroke-miterlimit:10"></rect><rect x="318.28" y="127.01" width="8.36" height="4.08" style="fill:#fff;stroke:#263238;stroke-miterlimit:10"></rect><rect x="326.84" y="121.96" width="8.36" height="49.77" style="fill:#fff;stroke:#263238;stroke-miterlimit:10"></rect><rect x="326.84" y="161.04" width="8.36" height="4.08" style="fill:#fff;stroke:#263238;stroke-miterlimit:10"></rect><rect x="326.84" y="127.01" width="8.36" height="4.08" style="fill:#fff;stroke:#263238;stroke-miterlimit:10"></rect><rect x="335.39" y="121.96" width="8.36" height="49.77" style="fill:#fff;stroke:#263238;stroke-miterlimit:10"></rect><rect x="343.68" y="121.96" width="14" height="49.77" style="fill:#fff;stroke:#263238;stroke-miterlimit:10"></rect><rect x="335.39" y="161.04" width="8.36" height="4.08" style="fill:#fff;stroke:#263238;stroke-miterlimit:10"></rect><rect x="335.39" y="127.01" width="8.36" height="4.08" style="fill:#fff;stroke:#263238;stroke-miterlimit:10"></rect><rect x="334.47" y="181.27" width="8.36" height="49.77" style="fill:#fff;stroke:#263238;stroke-miterlimit:10"></rect><rect x="334.47" y="220.35" width="8.36" height="4.08" style="fill:#fff;stroke:#263238;stroke-miterlimit:10"></rect><rect x="334.47" y="186.33" width="8.36" height="4.08" style="fill:#fff;stroke:#263238;stroke-miterlimit:10"></rect><rect x="326.22" y="181.27" width="8.36" height="49.77" style="fill:#fff;stroke:#263238;stroke-miterlimit:10"></rect><rect x="326.22" y="220.35" width="8.36" height="4.08" style="fill:#fff;stroke:#263238;stroke-miterlimit:10"></rect><rect x="326.22" y="186.33" width="8.36" height="4.08" style="fill:#fff;stroke:#263238;stroke-miterlimit:10"></rect><rect x="317.97" y="181.27" width="8.36" height="49.77" style="fill:#fff;stroke:#263238;stroke-miterlimit:10"></rect><rect x="317.97" y="220.35" width="8.36" height="4.08" style="fill:#fff;stroke:#263238;stroke-miterlimit:10"></rect><rect x="317.97" y="186.33" width="8.36" height="4.08" style="fill:#fff;stroke:#263238;stroke-miterlimit:10"></rect><rect x="309.73" y="181.27" width="8.36" height="49.77" style="fill:#fff;stroke:#263238;stroke-miterlimit:10"></rect><rect x="309.73" y="220.35" width="8.36" height="4.08" style="fill:#fff;stroke:#263238;stroke-miterlimit:10"></rect><rect x="309.73" y="186.33" width="8.36" height="4.08" style="fill:#fff;stroke:#263238;stroke-miterlimit:10"></rect><rect x="343.02" y="181.27" width="8.36" height="49.77" style="fill:#fff;stroke:#263238;stroke-miterlimit:10"></rect><rect x="343.02" y="220.35" width="8.36" height="4.08" style="fill:#fff;stroke:#263238;stroke-miterlimit:10"></rect><rect x="343.02" y="186.33" width="8.36" height="4.08" style="fill:#fff;stroke:#263238;stroke-miterlimit:10"></rect><rect x="351.57" y="181.27" width="8.36" height="49.77" style="fill:#fff;stroke:#263238;stroke-miterlimit:10"></rect><rect x="351.57" y="220.35" width="8.36" height="4.08" style="fill:#fff;stroke:#263238;stroke-miterlimit:10"></rect><rect x="351.57" y="186.33" width="8.36" height="4.08" style="fill:#fff;stroke:#263238;stroke-miterlimit:10"></rect><rect x="360.13" y="181.27" width="8.36" height="49.77" style="fill:#fff;stroke:#263238;stroke-miterlimit:10"></rect><rect x="368.42" y="181.27" width="14" height="49.77" style="fill:#fff;stroke:#263238;stroke-miterlimit:10"></rect><rect x="360.13" y="220.35" width="8.36" height="4.08" style="fill:#fff;stroke:#263238;stroke-miterlimit:10"></rect><rect x="360.13" y="186.33" width="8.36" height="4.08" style="fill:#fff;stroke:#263238;stroke-miterlimit:10"></rect><rect x="393.91" y="181.27" width="8.36" height="49.77" style="fill:#fff;stroke:#263238;stroke-miterlimit:10"></rect><rect x="393.91" y="220.35" width="8.36" height="4.08" style="fill:#fff;stroke:#263238;stroke-miterlimit:10"></rect><rect x="393.91" y="186.33" width="8.36" height="4.08" style="fill:#fff;stroke:#263238;stroke-miterlimit:10"></rect><rect x="402.47" y="181.27" width="8.36" height="49.77" style="fill:#fff;stroke:#263238;stroke-miterlimit:10"></rect><rect x="402.47" y="220.35" width="8.36" height="4.08" style="fill:#fff;stroke:#263238;stroke-miterlimit:10"></rect><rect x="402.47" y="186.33" width="8.36" height="4.08" style="fill:#fff;stroke:#263238;stroke-miterlimit:10"></rect><rect x="429.62" y="180.9" width="8.46" height="50.39" transform="translate(-46 185) rotate(-22.89)" style="fill:#fff;stroke:#263238;stroke-miterlimit:10"></rect><rect x="436.02" y="219.17" width="8.46" height="4.13" transform="translate(-51.39 188.68) rotate(-22.89)" style="fill:#fff;stroke:#263238;stroke-miterlimit:10"></rect><rect x="422.62" y="187.44" width="8.46" height="4.13" transform="translate(-40.1 180.97) rotate(-22.89)" style="fill:#fff;stroke:#263238;stroke-miterlimit:10"></rect><polygon points="439.76 230.95 457.21 230.95 465.06 227.68 447.55 227.66 439.76 230.95" style="fill:#fff;stroke:#263238;stroke-miterlimit:10"></polygon><polygon points="427.95 181.24 444.34 181.24 465.06 227.68 447.55 227.66 427.95 181.24" style="fill:#fff;stroke:#263238;stroke-miterlimit:10"></polygon><rect x="410.72" y="181.27" width="8.36" height="49.77" style="fill:#fff;stroke:#263238;stroke-miterlimit:10"></rect><rect x="410.72" y="220.35" width="8.36" height="4.08" style="fill:#fff;stroke:#263238;stroke-miterlimit:10"></rect><rect x="410.72" y="186.33" width="8.36" height="4.08" style="fill:#fff;stroke:#263238;stroke-miterlimit:10"></rect><polygon points="419.08 181.27 427.95 181.27 420.15 184.53 439.76 230.95 419.08 230.95 419.08 181.27" style="fill:#fff;stroke:#263238;stroke-miterlimit:10"></polygon><rect x="334.47" y="300.09" width="8.36" height="49.77" style="fill:#fff;stroke:#263238;stroke-miterlimit:10"></rect><rect x="334.47" y="339.17" width="8.36" height="4.08" style="fill:#fff;stroke:#263238;stroke-miterlimit:10"></rect><rect x="334.47" y="305.14" width="8.36" height="4.08" style="fill:#fff;stroke:#263238;stroke-miterlimit:10"></rect><rect x="326.22" y="300.09" width="8.36" height="49.77" style="fill:#fff;stroke:#263238;stroke-miterlimit:10"></rect><rect x="326.22" y="339.17" width="8.36" height="4.08" style="fill:#fff;stroke:#263238;stroke-miterlimit:10"></rect><rect x="326.22" y="305.14" width="8.36" height="4.08" style="fill:#fff;stroke:#263238;stroke-miterlimit:10"></rect><rect x="317.97" y="300.09" width="8.36" height="49.77" style="fill:#fff;stroke:#263238;stroke-miterlimit:10"></rect><rect x="317.97" y="339.17" width="8.36" height="4.08" style="fill:#fff;stroke:#263238;stroke-miterlimit:10"></rect><rect x="317.97" y="305.14" width="8.36" height="4.08" style="fill:#fff;stroke:#263238;stroke-miterlimit:10"></rect><rect x="309.73" y="300.09" width="8.36" height="49.77" style="fill:#fff;stroke:#263238;stroke-miterlimit:10"></rect><rect x="309.73" y="339.17" width="8.36" height="4.08" style="fill:#fff;stroke:#263238;stroke-miterlimit:10"></rect><rect x="309.73" y="305.14" width="8.36" height="4.08" style="fill:#fff;stroke:#263238;stroke-miterlimit:10"></rect><rect x="343.02" y="300.09" width="8.36" height="49.77" style="fill:#fff;stroke:#263238;stroke-miterlimit:10"></rect><rect x="343.02" y="339.17" width="8.36" height="4.08" style="fill:#fff;stroke:#263238;stroke-miterlimit:10"></rect><rect x="343.02" y="305.14" width="8.36" height="4.08" style="fill:#fff;stroke:#263238;stroke-miterlimit:10"></rect><rect x="351.57" y="300.09" width="8.36" height="49.77" style="fill:#fff;stroke:#263238;stroke-miterlimit:10"></rect><rect x="351.57" y="339.17" width="8.36" height="4.08" style="fill:#fff;stroke:#263238;stroke-miterlimit:10"></rect><rect x="351.57" y="305.14" width="8.36" height="4.08" style="fill:#fff;stroke:#263238;stroke-miterlimit:10"></rect><rect x="360.13" y="300.09" width="8.36" height="49.77" style="fill:#fff;stroke:#263238;stroke-miterlimit:10"></rect><rect x="368.42" y="300.09" width="14" height="49.77" style="fill:#fff;stroke:#263238;stroke-miterlimit:10"></rect><rect x="360.13" y="339.17" width="8.36" height="4.08" style="fill:#fff;stroke:#263238;stroke-miterlimit:10"></rect><rect x="360.13" y="305.14" width="8.36" height="4.08" style="fill:#fff;stroke:#263238;stroke-miterlimit:10"></rect><rect x="393.91" y="300.09" width="8.36" height="49.77" style="fill:#fff;stroke:#263238;stroke-miterlimit:10"></rect><rect x="393.91" y="339.17" width="8.36" height="4.08" style="fill:#fff;stroke:#263238;stroke-miterlimit:10"></rect><rect x="393.91" y="305.14" width="8.36" height="4.08" style="fill:#fff;stroke:#263238;stroke-miterlimit:10"></rect><rect x="402.47" y="300.09" width="8.36" height="49.77" style="fill:#fff;stroke:#263238;stroke-miterlimit:10"></rect><rect x="402.47" y="339.17" width="8.36" height="4.08" style="fill:#fff;stroke:#263238;stroke-miterlimit:10"></rect><rect x="402.47" y="305.14" width="8.36" height="4.08" style="fill:#fff;stroke:#263238;stroke-miterlimit:10"></rect><rect x="429.62" y="299.71" width="8.46" height="50.39" transform="translate(-92.22 194.36) rotate(-22.89)" style="fill:#fff;stroke:#263238;stroke-miterlimit:10"></rect><rect x="436.02" y="337.98" width="8.46" height="4.13" transform="matrix(0.92, -0.39, 0.39, 0.92, -97.6, 198.04)" style="fill:#fff;stroke:#263238;stroke-miterlimit:10"></rect><rect x="422.62" y="306.25" width="8.46" height="4.13" transform="translate(-86.32 190.33) rotate(-22.89)" style="fill:#fff;stroke:#263238;stroke-miterlimit:10"></rect><polygon points="439.76 349.77 457.21 349.77 465.06 346.5 447.55 346.47 439.76 349.77" style="fill:#fff;stroke:#263238;stroke-miterlimit:10"></polygon><polygon points="427.95 300.05 444.34 300.05 465.06 346.5 447.55 346.47 427.95 300.05" style="fill:#fff;stroke:#263238;stroke-miterlimit:10"></polygon><rect x="410.72" y="300.09" width="8.36" height="49.77" style="fill:#fff;stroke:#263238;stroke-miterlimit:10"></rect><rect x="410.72" y="339.17" width="8.36" height="4.08" style="fill:#fff;stroke:#263238;stroke-miterlimit:10"></rect><rect x="410.72" y="305.14" width="8.36" height="4.08" style="fill:#fff;stroke:#263238;stroke-miterlimit:10"></rect><polygon points="419.08 300.09 427.95 300.09 420.15 303.34 439.76 349.77 419.08 349.77 419.08 300.09" style="fill:#fff;stroke:#263238;stroke-miterlimit:10"></polygon><line x1="387.78" y1="350.04" x2="387.78" y2="466.74" style="fill:none;stroke:#263238;stroke-miterlimit:10"></line><line x1="310.15" y1="364.49" x2="471.63" y2="364.49" style="fill:none;stroke:#263238;stroke-miterlimit:10"></line><line x1="343.29" y1="374.36" x2="343.29" y2="395.52" style="fill:none;stroke:#263238;stroke-miterlimit:10;stroke-width:2px"></line><line x1="350.34" y1="374.36" x2="350.34" y2="395.52" style="fill:none;stroke:#263238;stroke-miterlimit:10;stroke-width:2px"></line><line x1="424.39" y1="374.36" x2="424.39" y2="395.52" style="fill:none;stroke:#263238;stroke-miterlimit:10;stroke-width:2px"></line><line x1="431.44" y1="374.36" x2="431.44" y2="395.52" style="fill:none;stroke:#263238;stroke-miterlimit:10;stroke-width:2px"></line></g><g id="freepik--Pictures--inject-103"><polyline points="516.64 115.01 516.64 79.13 568.82 79.13" style="fill:none;stroke:#263238;stroke-miterlimit:10"></polyline><polyline points="572.66 79.13 594.64 79.13 594.64 168.13 516.64 168.13 516.64 120.45" style="fill:none;stroke:#263238;stroke-miterlimit:10"></polyline><polyline points="566.26 156.13 527.15 156.13 527.15 91.13 584.12 91.13 584.12 156.13 570.74 156.13" style="fill:none;stroke:#263238;stroke-miterlimit:10"></polyline><rect x="544.68" y="111.13" width="21.91" height="25" style="fill:none;stroke:#263238;stroke-miterlimit:10"></rect><polyline points="601.57 156.49 601.57 134.11 634.12 134.11" style="fill:none;stroke:#263238;stroke-miterlimit:10"></polyline><polyline points="636.51 134.11 650.22 134.11 650.22 189.62 601.57 189.62 601.57 159.88" style="fill:none;stroke:#263238;stroke-miterlimit:10"></polyline><polyline points="632.52 182.14 608.13 182.14 608.13 141.59 643.66 141.59 643.66 182.14 635.31 182.14" style="fill:none;stroke:#263238;stroke-miterlimit:10"></polyline><rect x="619.06" y="154.07" width="13.67" height="15.59" style="fill:none;stroke:#263238;stroke-miterlimit:10"></rect></g><g id="freepik--Floor--inject-103"><line x1="85.8" y1="472.38" x2="649.8" y2="472.38" style="fill:none;stroke:#263238;stroke-linecap:round;stroke-linejoin:round"></line></g><g id="freepik--Character--inject-103"><path d="M125.8,332.38s-6-80-3-89,21.5-8.5,25-8.5,76.5,0,87,5,12,128,12,128h-116Z" style="fill:#263238;stroke:#263238;stroke-miterlimit:10"></path><path d="M250.79,325.88s-12,0-14.4,12,7.05,61.5,7.75,75.5,3.16,33.5,3.16,33.5h42.5l9.5-121Z" style="fill:#263238;stroke:#263238;stroke-miterlimit:10"></path><path d="M299.3,325.88s-12,0-15,12,4,61.5,4,75.5,1.5,33.5,1.5,33.5h15s1.5-36,1.5-41,6-57,3-67.5S303.8,326.88,299.3,325.88Z" style="fill:#636363;stroke:#263238;stroke-miterlimit:10"></path><path d="M172.55,240.13s-39.75,16.25-39.75,18,13.5,48.75,18.5,56,8.5,15.25,10,18.25,8,10.5,13.25,10.5,11.5-6.25,28.25-8.75,31.75-2.25,34.75-4.5-.75-8.25-1.25-9.5-2.5-5.75-2.5-5.75,16.25,13.5,22.75,14,11.25-2.75,12.25-7-2.75-14.5-5.25-20-14.25-14.25-19.5-21-12-14.75-16.75-20.25a45.47,45.47,0,0,0-15-11.5c-4.5-2-16-7-23.25-7.75S172.55,240.13,172.55,240.13Z" style="fill:#DDA900;stroke:#263238;stroke-miterlimit:10"></path><path d="M250.46,298.71s-5.66,15.67-3.66,19.67,7.33,5.33,7.33,5.33" style="fill:none;stroke:#263238;stroke-miterlimit:10"></path><polyline points="166.55 245.38 199.55 277.38 204.55 253.38" style="fill:none;stroke:#263238;stroke-miterlimit:10"></polyline><path d="M252.05,300.63s8,5.75,10.75,3.75,2-5.75.25-9.75-7.5-6.25-9.75-4.5S250.3,298.88,252.05,300.63Z" style="fill:#fff;stroke:#263238;stroke-miterlimit:10"></path><path d="M170.05,229.63l1.25,15,26.5,26,4-18.5,1.75-7.75s-17.25-3-22.75-6.75S170.05,229.63,170.05,229.63Z" style="fill:#fff;stroke:#263238;stroke-miterlimit:10"></path><path d="M203.55,244.38s-17.25-3-22.75-6.75-10.75-8-10.75-8l1.25,15L178,251.2c5.21,1.47,10.4,2.18,13.93.82a55.39,55.39,0,0,0,11.16-5.55Z" style="fill:#263238;stroke:#263238;stroke-miterlimit:10"></path><path d="M162.13,218.05s-4.67-21.34-4.67-25,12.67-22.34,30-19.34,27,13,27.67,16-2,9-2,9a24.84,24.84,0,0,1,1,5.34c0,2-3,10.66-3,10.66l-1-9s-8.33,2.34-13,2.34-12.67-3-12.67-3,1.67,5.33,0,8-6.66,5-6.66,5-.67,5.33-2.67,5.33a43.6,43.6,0,0,1-7.33-1C166.46,222.05,162.13,218.05,162.13,218.05Z" style="fill:#263238;stroke:#263238;stroke-miterlimit:10"></path><path d="M169.8,220.38s-.67-8-7.34-6-2.33,9.33,1.34,13,4.66,1,4.66,1,1,7.67,6,12,12.67,12.33,20.67,11.33,13.67-11,14.67-18.33,1.66-24.67,1.66-26.67a37.49,37.49,0,0,0-1.33-6.66s-7,5-13.33,3.66-13-4-16-4-2.34,4.34-1.34,5.67,3.67,4,.67,5.67-7,3.33-7,3.33v7Z" style="fill:#fff;stroke:#263238;stroke-miterlimit:10"></path><polyline points="201.69 216.74 200.05 234.81 191.84 232.43" style="fill:none;stroke:#263238;stroke-miterlimit:10"></polyline><path d="M194.76,233.89s-4,0-6.2.19a16.87,16.87,0,0,1-4,.18c-.91-.18-2-.91-.18.91s7.3,4,10.22,4.38,4.93-.55,7.11-2,4-2.92,2.92-3.28a24.08,24.08,0,0,0-4.56-.37v.92Z" style="fill:#263238;stroke:#263238;stroke-miterlimit:10"></path><ellipse cx="189.01" cy="220.48" rx="1.19" ry="2.46" style="fill:#263238"></ellipse><path d="M206.8,220.12c0,1.36-.53,2.46-1.18,2.46s-1.19-1.1-1.19-2.46.53-2.47,1.19-2.47S206.8,218.76,206.8,220.12Z" style="fill:#263238"></path><path d="M184.54,216.74s4.93-3.47,8.94-2" style="fill:none;stroke:#263238;stroke-miterlimit:10"></path><path d="M202.61,214.92s5.11-2.38,7.3-.19" style="fill:none;stroke:#263238;stroke-miterlimit:10"></path><path d="M192.21,225s-1.1,1.28-4.75,2.37" style="fill:none;stroke:#263238;stroke-miterlimit:10"></path><path d="M202.24,224.22a16.52,16.52,0,0,0,3.47,1.83" style="fill:none;stroke:#263238;stroke-miterlimit:10"></path><path d="M217.8,271.63l1.75-4.5s2.25,2.25,8.25,2.25,15.75,4.25,15.75,4.25l.75,1.25s1.75-5.25,5-6.25,8.5-4.5,9.25-5.5l.75-1,3.5,3-15.5,20.5-29-11.25Z" style="fill:#fff;stroke:#263238;stroke-miterlimit:10"></path><polygon points="218.05 269.88 210.55 309.63 236.55 315.63 246.05 277.13 218.05 269.88" style="fill:#fff;stroke:#263238;stroke-miterlimit:10"></polygon><polygon points="246.05 277.13 262.8 265.13 252.8 303.63 236.55 315.63 246.05 277.13" style="fill:#fff;stroke:#263238;stroke-miterlimit:10"></polygon><path d="M185.8,302.38l11.33-4.67s10-10.66,11-11.66,11-2,11-2l11,7.33s2,1.67,0,2.33-6.33-1.33-6.33-1.33l-4.34-2.67-2.66,1.34,5.66,4.66s1.67,4.34,1.67,6.67a10.84,10.84,0,0,1-1,4.33l-3.33,4.67-10-5s-6,4.33-7.34,5-14-.33-14-.33Z" style="fill:#fff;stroke:#263238;stroke-miterlimit:10"></path><polyline points="209.71 290.7 213.25 290.03 216.29 290.87" style="fill:none;stroke:#263238;stroke-miterlimit:10"></polyline><path d="M206.34,297.28s7.92-2.2,8.43-2.2,6.41,6.07,6.41,6.07l.67,6.58" style="fill:none;stroke:#263238;stroke-miterlimit:10"></path><path d="M206.68,301.49l6.4.17,5.9,3.88a17.67,17.67,0,0,1,.82,5.84" style="fill:none;stroke:#263238;stroke-miterlimit:10"></path><path d="M139.8,253.38s-7.34,1-8.34,7.33-7.66,59.67-5.66,65.67,39-4.33,40.33-5,22.33-7,22.67-8.33,1-12.34-2-13-31.67.33-31.67.33l-4-34.67" style="fill:#DDA900;stroke:#263238;stroke-miterlimit:10"></path><line x1="155.13" y1="300.38" x2="137.46" y2="303.38" style="fill:none;stroke:#263238;stroke-miterlimit:10"></line><line x1="134.13" y1="299.38" x2="149.46" y2="301.38" style="fill:none;stroke:#263238;stroke-miterlimit:10"></line><path d="M258.3,281.63s-6.75,7-6.5,8.75,3.75-1,4.5-1.75,4.25-2.75,4.25-4.75S259.8,279.63,258.3,281.63Z" style="fill:#fff;stroke:#263238;stroke-miterlimit:10"></path><path d="M259.05,285.88s2,2,2,3.75-4.25,7.5-6.25,7.5-.5-4,.5-5.75S259.05,285.88,259.05,285.88Z" style="fill:#fff;stroke:#263238;stroke-miterlimit:10"></path><path d="M261.05,289.63s2.5.75,2.5,3-4.75,6-6,6.25-1-2,0-3.75S261.05,289.63,261.05,289.63Z" style="fill:#fff;stroke:#263238;stroke-miterlimit:10"></path><path d="M263.55,292.63a7.85,7.85,0,0,1,.5,4c-.25,2.5-4,4-5.25,4s-1.25-1.75-1.25-1.75A77,77,0,0,0,263.55,292.63Z" style="fill:#fff;stroke:#263238;stroke-miterlimit:10"></path><polygon points="184.92 472.38 180.17 472.38 177.8 440.88 187.3 440.88 184.92 472.38" style="fill:#fff;stroke:#263238;stroke-miterlimit:10"></polygon><polygon points="141.42 472.38 136.67 472.38 134.3 440.88 143.8 440.88 141.42 472.38" style="fill:#fff;stroke:#263238;stroke-miterlimit:10"></polygon><polygon points="298.42 472.38 293.67 472.38 291.3 440.88 300.8 440.88 298.42 472.38" style="fill:#fff;stroke:#263238;stroke-miterlimit:10"></polygon><polygon points="254.92 472.38 250.17 472.38 247.8 440.88 257.3 440.88 254.92 472.38" style="fill:#fff;stroke:#263238;stroke-miterlimit:10"></polygon><rect x="178.3" y="380.61" width="113.5" height="66" style="fill:#263238;stroke:#263238;stroke-miterlimit:10"></rect><path d="M374.13,370.05s12-5,14.67-7,6.33,2.33,4.66,7-6,13-12.66,17-12,7.33-13.34,8.66-1,6.34-6.66,8.34-12.67-2-16.67-8.34-6.67-10.66-6.67-10.66.34-4.67,7-7,18-3.34,18-3.34Z" style="fill:#fff;stroke:#263238;stroke-miterlimit:10"></path><path d="M237.55,329.63s7.91-1.92,9.91-.92,8.67,7.34,8.67,7.34,40.33.66,43.33,2,34,25,40.67,28.33,12.33,6.33,12.33,6.33l-5,22v2l.34,3.34s-17.34-5.34-21.67-6.34-22.33-10.33-24-10.33-15.33-4-15.33-4-2-1.33-23.67-3.33-46-4.34-54.67-4.67-20-1-24.33-2.67-12-13.33-13.33-20.33,12.66-13,18.66-15.67,28.34-6,32.34-6S237.55,329.63,237.55,329.63Z" style="fill:#fff;stroke:#263238;stroke-miterlimit:10"></path><polyline points="245.13 339.38 238.46 349.05 247.46 343.05" style="fill:#fff;stroke:#263238;stroke-miterlimit:10"></polyline><path d="M347.46,368.38s9.67-7.67,11.67-10,8.67-15,10-19,4.67-6,7-3,4,9,5.33,11.67-.66,15.66-4.66,20-9.53,14.85-10.67,17c-3,5.66-7.67,6.33-10.67,6.66s-10.33-7.66-10.33-7.66Z" style="fill:#fff;stroke:#263238;stroke-miterlimit:10"></path><path d="M199.13,346.05s10-2,19-1,27.33,6.66,35,8.66,21.33,3,27.67,5.34,23,5.33,35.66,5.33,32,1.67,32,1.67-2.66,19.33-2,23a56.74,56.74,0,0,0,2.67,8.66s-25.67,2-33,3-37-3.66-42-5-12.33-3.33-17-3.33-13.67,2-26.67,3.33-31.33-4.33-33.66-4.66-10.67-3.34-12.67-4.67-13.67-22-9.67-30.67,9-10,9-10" style="fill:#fff;stroke:#263238;stroke-miterlimit:10"></path><path d="M260.45,379.68c6.43,1.28,13.24,5.18,22.45,8.79,12.29,4.81,36.89,4.37,40.06,4.81s11.22,0,11.22,0" style="fill:#fff;stroke:#263238;stroke-miterlimit:10"></path><path d="M210.87,384.2l3.67.53c10.68,1.6,31-4.27,39.52-5.34" style="fill:#fff;stroke:#263238;stroke-miterlimit:10"></path><path d="M200.12,383.13s1.92,0,6.93.59" style="fill:#fff;stroke:#263238;stroke-miterlimit:10"></path><path d="M135.29,325.88s-12,0-14.4,12,7,61.5,7.75,75.5,3.16,33.5,3.16,33.5h42.5l9.5-121Z" style="fill:#263238;stroke:#263238;stroke-miterlimit:10"></path><path d="M183.8,325.88s-12,0-15,12,4,61.5,4,75.5,1.5,33.5,1.5,33.5h15s1.5-36,1.5-41,6-57,3-67.5S188.3,326.88,183.8,325.88Z" style="fill:#636363;stroke:#263238;stroke-miterlimit:10"></path><polygon points="281.42 472.38 276.67 472.38 274.3 440.88 283.8 440.88 281.42 472.38" style="fill:#fff;stroke:#263238;stroke-miterlimit:10"></polygon><polygon points="321.92 472.38 317.17 472.38 314.8 440.88 324.3 440.88 321.92 472.38" style="fill:#fff;stroke:#263238;stroke-miterlimit:10"></polygon><polygon points="340.92 472.38 336.17 472.38 333.8 440.88 343.3 440.88 340.92 472.38" style="fill:#fff;stroke:#263238;stroke-miterlimit:10"></polygon><polygon points="380.92 472.38 376.17 472.38 373.8 440.88 383.3 440.88 380.92 472.38" style="fill:#fff;stroke:#263238;stroke-miterlimit:10"></polygon><path d="M275.55,399.88H380a7.25,7.25,0,0,1,7.25,7.25v51.25a0,0,0,0,1,0,0h-119a0,0,0,0,1,0,0V407.13A7.25,7.25,0,0,1,275.55,399.88Z" style="fill:#263238;stroke:#263238;stroke-miterlimit:10"></path><path d="M380.05,399.88h-38a7.25,7.25,0,0,0-7.25,7.25v51.25h52.5V407.13A7.26,7.26,0,0,0,380.05,399.88Z" style="fill:#636363;stroke:#263238;stroke-miterlimit:10"></path></g></svg>