<svg width="399" height="399" viewBox="0 0 399 399" fill="none" xmlns="http://www.w3.org/2000/svg">
<path d="M137.4 37.0112C137.4 37.0112 196.013 19.7585 253.908 54.663C311.803 89.5675 341.281 154.676 366.601 206.905C391.922 259.135 377.885 310.31 334.027 331.8C290.169 353.291 259.996 316.95 198.231 312.217C136.466 307.485 119.915 315.178 68.4524 279.021C16.9894 242.863 7.182 162.944 47.2336 106.134C87.2852 49.3244 137.4 37.0112 137.4 37.0112Z" fill="#92BCE3"/>
<path opacity="0.7" d="M137.4 37.0112C137.4 37.0112 196.013 19.7585 253.908 54.663C311.803 89.5675 341.281 154.676 366.601 206.905C391.922 259.135 377.885 310.31 334.027 331.8C290.169 353.291 259.996 316.95 198.231 312.217C136.466 307.485 119.915 315.178 68.4524 279.021C16.9894 242.863 7.182 162.944 47.2336 106.134C87.2852 49.3244 137.4 37.0112 137.4 37.0112Z" fill="white"/>
<path d="M362.332 321.355H31.9839" stroke="#263238" stroke-linecap="round" stroke-linejoin="round"/>
<path d="M362.332 328.928H31.9839" stroke="#263238" stroke-linecap="round" stroke-linejoin="round"/>
<path d="M338.775 194.401H357.719C359.54 194.401 361.015 195.876 361.015 197.697V216.641C361.015 218.461 359.54 219.937 357.719 219.937H338.775C336.955 219.937 335.479 218.461 335.479 216.641V197.697C335.479 195.876 336.955 194.401 338.775 194.401Z" stroke="#263238" stroke-linecap="round" stroke-linejoin="round"/>
<path d="M311.076 194.401H330.021C331.841 194.401 333.317 195.876 333.317 197.697V216.641C333.317 218.461 331.841 219.937 330.021 219.937H311.076C309.256 219.937 307.781 218.461 307.781 216.641V197.697C307.781 195.876 309.256 194.401 311.076 194.401Z" stroke="#263238" stroke-linecap="round" stroke-linejoin="round"/>
<path d="M283.378 194.401H302.322C304.142 194.401 305.618 195.876 305.618 197.697V216.641C305.618 218.461 304.142 219.937 302.322 219.937H283.378C281.558 219.937 280.082 218.461 280.082 216.641V197.697C280.082 195.876 281.558 194.401 283.378 194.401Z" stroke="#263238" stroke-linecap="round" stroke-linejoin="round"/>
<path d="M255.687 194.401H274.632C276.452 194.401 277.927 195.876 277.927 197.697V216.641C277.927 218.461 276.452 219.937 274.632 219.937H255.687C253.867 219.937 252.391 218.461 252.391 216.641V197.697C252.391 195.876 253.867 194.401 255.687 194.401Z" stroke="#263238" stroke-linecap="round" stroke-linejoin="round"/>
<path d="M227.989 194.401H246.933C248.753 194.401 250.229 195.876 250.229 197.697V216.641C250.229 218.461 248.753 219.937 246.933 219.937H227.989C226.168 219.937 224.693 218.461 224.693 216.641V197.697C224.693 195.876 226.168 194.401 227.989 194.401Z" stroke="#263238" stroke-linecap="round" stroke-linejoin="round"/>
<path d="M200.29 194.401H219.235C221.055 194.401 222.53 195.876 222.53 197.697V216.641C222.53 218.461 221.055 219.937 219.235 219.937H200.29C198.47 219.937 196.994 218.461 196.994 216.641V197.697C196.994 195.876 198.47 194.401 200.29 194.401Z" stroke="#263238" stroke-linecap="round" stroke-linejoin="round"/>
<path d="M172.599 194.401H191.544C193.364 194.401 194.84 195.876 194.84 197.697V216.641C194.84 218.461 193.364 219.937 191.544 219.937H172.599C170.779 219.937 169.304 218.461 169.304 216.641V197.697C169.304 195.876 170.779 194.401 172.599 194.401Z" stroke="#263238" stroke-linecap="round" stroke-linejoin="round"/>
<path d="M144.901 194.401H163.845C165.666 194.401 167.141 195.876 167.141 197.697V216.641C167.141 218.461 165.666 219.937 163.845 219.937H144.901C143.081 219.937 141.605 218.461 141.605 216.641V197.697C141.605 195.876 143.081 194.401 144.901 194.401Z" stroke="#263238" stroke-linecap="round" stroke-linejoin="round"/>
<path d="M117.202 194.401H136.147C137.967 194.401 139.443 195.876 139.443 197.697V216.641C139.443 218.461 137.967 219.937 136.147 219.937H117.202C115.382 219.937 113.907 218.461 113.907 216.641V197.697C113.907 195.876 115.382 194.401 117.202 194.401Z" stroke="#263238" stroke-linecap="round" stroke-linejoin="round"/>
<path d="M89.5117 194.401H108.456C110.276 194.401 111.752 195.876 111.752 197.697V216.641C111.752 218.461 110.276 219.937 108.456 219.937H89.5117C87.6915 219.937 86.2159 218.461 86.2159 216.641V197.697C86.2159 195.876 87.6915 194.401 89.5117 194.401Z" stroke="#263238" stroke-linecap="round" stroke-linejoin="round"/>
<path d="M61.8131 194.401H80.7576C82.5778 194.401 84.0533 195.876 84.0533 197.697V216.641C84.0533 218.461 82.5778 219.937 80.7576 219.937H61.8131C59.9929 219.937 58.5173 218.461 58.5173 216.641V197.697C58.5173 195.876 59.9929 194.401 61.8131 194.401Z" stroke="#263238" stroke-linecap="round" stroke-linejoin="round"/>
<path d="M34.1145 194.401H53.059C54.8792 194.401 56.3548 195.876 56.3548 197.697V216.641C56.3548 218.461 54.8792 219.937 53.059 219.937H34.1145C32.2943 219.937 30.8188 218.461 30.8188 216.641V197.697C30.8188 195.876 32.2943 194.401 34.1145 194.401Z" stroke="#263238" stroke-linecap="round" stroke-linejoin="round"/>
<path d="M338.775 221.692H357.719C359.54 221.692 361.015 223.168 361.015 224.988V243.933C361.015 245.753 359.54 247.228 357.719 247.228H338.775C336.955 247.228 335.479 245.753 335.479 243.933V224.988C335.479 223.168 336.955 221.692 338.775 221.692Z" stroke="#263238" stroke-linecap="round" stroke-linejoin="round"/>
<path d="M311.076 221.692H330.021C331.841 221.692 333.317 223.168 333.317 224.988V243.933C333.317 245.753 331.841 247.228 330.021 247.228H311.076C309.256 247.228 307.781 245.753 307.781 243.933V224.988C307.781 223.168 309.256 221.692 311.076 221.692Z" stroke="#263238" stroke-linecap="round" stroke-linejoin="round"/>
<path d="M283.378 221.692H302.322C304.142 221.692 305.618 223.168 305.618 224.988V243.933C305.618 245.753 304.142 247.228 302.322 247.228H283.378C281.558 247.228 280.082 245.753 280.082 243.933V224.988C280.082 223.168 281.558 221.692 283.378 221.692Z" stroke="#263238" stroke-linecap="round" stroke-linejoin="round"/>
<path d="M255.687 221.692H274.632C276.452 221.692 277.927 223.168 277.927 224.988V243.933C277.927 245.753 276.452 247.228 274.632 247.228H255.687C253.867 247.228 252.391 245.753 252.391 243.933V224.988C252.391 223.168 253.867 221.692 255.687 221.692Z" stroke="#263238" stroke-linecap="round" stroke-linejoin="round"/>
<path d="M227.989 221.692H246.933C248.753 221.692 250.229 223.168 250.229 224.988V243.933C250.229 245.753 248.753 247.228 246.933 247.228H227.989C226.168 247.228 224.693 245.753 224.693 243.933V224.988C224.693 223.168 226.168 221.692 227.989 221.692Z" stroke="#263238" stroke-linecap="round" stroke-linejoin="round"/>
<path d="M200.29 221.692H219.235C221.055 221.692 222.53 223.168 222.53 224.988V243.933C222.53 245.753 221.055 247.228 219.235 247.228H200.29C198.47 247.228 196.994 245.753 196.994 243.933V224.988C196.994 223.168 198.47 221.692 200.29 221.692Z" stroke="#263238" stroke-linecap="round" stroke-linejoin="round"/>
<path d="M172.599 221.692H191.544C193.364 221.692 194.84 223.168 194.84 224.988V243.933C194.84 245.753 193.364 247.228 191.544 247.228H172.599C170.779 247.228 169.304 245.753 169.304 243.933V224.988C169.304 223.168 170.779 221.692 172.599 221.692Z" stroke="#263238" stroke-linecap="round" stroke-linejoin="round"/>
<path d="M144.901 221.692H163.845C165.666 221.692 167.141 223.168 167.141 224.988V243.933C167.141 245.753 165.666 247.228 163.845 247.228H144.901C143.081 247.228 141.605 245.753 141.605 243.933V224.988C141.605 223.168 143.081 221.692 144.901 221.692Z" stroke="#263238" stroke-linecap="round" stroke-linejoin="round"/>
<path d="M117.202 221.692H136.147C137.967 221.692 139.443 223.168 139.443 224.988V243.933C139.443 245.753 137.967 247.228 136.147 247.228H117.202C115.382 247.228 113.907 245.753 113.907 243.933V224.988C113.907 223.168 115.382 221.692 117.202 221.692Z" stroke="#263238" stroke-linecap="round" stroke-linejoin="round"/>
<path d="M89.5117 221.692H108.456C110.276 221.692 111.752 223.168 111.752 224.988V243.933C111.752 245.753 110.276 247.228 108.456 247.228H89.5117C87.6915 247.228 86.2159 245.753 86.2159 243.933V224.988C86.2159 223.168 87.6915 221.692 89.5117 221.692Z" stroke="#263238" stroke-linecap="round" stroke-linejoin="round"/>
<path d="M61.8131 221.692H80.7576C82.5778 221.692 84.0533 223.168 84.0533 224.988V243.933C84.0533 245.753 82.5778 247.228 80.7576 247.228H61.8131C59.9929 247.228 58.5173 245.753 58.5173 243.933V224.988C58.5173 223.168 59.9929 221.692 61.8131 221.692Z" stroke="#263238" stroke-linecap="round" stroke-linejoin="round"/>
<path d="M34.1145 221.692H53.059C54.8792 221.692 56.3548 223.168 56.3548 224.988V243.933C56.3548 245.753 54.8792 247.228 53.059 247.228H34.1145C32.2943 247.228 30.8188 245.753 30.8188 243.933V224.988C30.8188 223.168 32.2943 221.692 34.1145 221.692Z" stroke="#263238" stroke-linecap="round" stroke-linejoin="round"/>
<path d="M338.775 248.984H357.719C359.54 248.984 361.015 250.46 361.015 252.28V271.224C361.015 273.044 359.54 274.52 357.719 274.52H338.775C336.955 274.52 335.479 273.044 335.479 271.224V252.28C335.479 250.46 336.955 248.984 338.775 248.984Z" stroke="#263238" stroke-linecap="round" stroke-linejoin="round"/>
<path d="M311.076 248.984H330.021C331.841 248.984 333.317 250.46 333.317 252.28V271.224C333.317 273.044 331.841 274.52 330.021 274.52H311.076C309.256 274.52 307.781 273.044 307.781 271.224V252.28C307.781 250.46 309.256 248.984 311.076 248.984Z" stroke="#263238" stroke-linecap="round" stroke-linejoin="round"/>
<path d="M283.378 248.984H302.322C304.142 248.984 305.618 250.46 305.618 252.28V271.224C305.618 273.044 304.142 274.52 302.322 274.52H283.378C281.558 274.52 280.082 273.044 280.082 271.224V252.28C280.082 250.46 281.558 248.984 283.378 248.984Z" stroke="#263238" stroke-linecap="round" stroke-linejoin="round"/>
<path d="M255.687 248.984H274.632C276.452 248.984 277.927 250.46 277.927 252.28V271.224C277.927 273.044 276.452 274.52 274.632 274.52H255.687C253.867 274.52 252.391 273.044 252.391 271.224V252.28C252.391 250.46 253.867 248.984 255.687 248.984Z" stroke="#263238" stroke-linecap="round" stroke-linejoin="round"/>
<path d="M227.989 248.984H246.933C248.753 248.984 250.229 250.46 250.229 252.28V271.224C250.229 273.044 248.753 274.52 246.933 274.52H227.989C226.168 274.52 224.693 273.044 224.693 271.224V252.28C224.693 250.46 226.168 248.984 227.989 248.984Z" stroke="#263238" stroke-linecap="round" stroke-linejoin="round"/>
<path d="M200.29 248.984H219.235C221.055 248.984 222.53 250.46 222.53 252.28V271.224C222.53 273.044 221.055 274.52 219.235 274.52H200.29C198.47 274.52 196.994 273.044 196.994 271.224V252.28C196.994 250.46 198.47 248.984 200.29 248.984Z" stroke="#263238" stroke-linecap="round" stroke-linejoin="round"/>
<path d="M172.599 248.984H191.544C193.364 248.984 194.84 250.46 194.84 252.28V271.224C194.84 273.044 193.364 274.52 191.544 274.52H172.599C170.779 274.52 169.304 273.044 169.304 271.224V252.28C169.304 250.46 170.779 248.984 172.599 248.984Z" stroke="#263238" stroke-linecap="round" stroke-linejoin="round"/>
<path d="M144.901 248.984H163.845C165.666 248.984 167.141 250.46 167.141 252.28V271.224C167.141 273.044 165.666 274.52 163.845 274.52H144.901C143.081 274.52 141.605 273.044 141.605 271.224V252.28C141.605 250.46 143.081 248.984 144.901 248.984Z" stroke="#263238" stroke-linecap="round" stroke-linejoin="round"/>
<path d="M117.202 248.984H136.147C137.967 248.984 139.443 250.46 139.443 252.28V271.224C139.443 273.044 137.967 274.52 136.147 274.52H117.202C115.382 274.52 113.907 273.044 113.907 271.224V252.28C113.907 250.46 115.382 248.984 117.202 248.984Z" stroke="#263238" stroke-linecap="round" stroke-linejoin="round"/>
<path d="M89.5117 248.984H108.456C110.276 248.984 111.752 250.46 111.752 252.28V271.224C111.752 273.044 110.276 274.52 108.456 274.52H89.5117C87.6915 274.52 86.2159 273.044 86.2159 271.224V252.28C86.2159 250.46 87.6915 248.984 89.5117 248.984Z" stroke="#263238" stroke-linecap="round" stroke-linejoin="round"/>
<path d="M61.8131 248.984H80.7576C82.5778 248.984 84.0533 250.46 84.0533 252.28V271.224C84.0533 273.044 82.5778 274.52 80.7576 274.52H61.8131C59.9929 274.52 58.5173 273.044 58.5173 271.224V252.28C58.5173 250.46 59.9929 248.984 61.8131 248.984Z" stroke="#263238" stroke-linecap="round" stroke-linejoin="round"/>
<path d="M34.1145 248.984H53.059C54.8792 248.984 56.3548 250.46 56.3548 252.28V271.224C56.3548 273.044 54.8792 274.52 53.059 274.52H34.1145C32.2943 274.52 30.8188 273.044 30.8188 271.224V252.28C30.8188 250.46 32.2943 248.984 34.1145 248.984Z" stroke="#263238" stroke-linecap="round" stroke-linejoin="round"/>
<path d="M338.775 276.276H357.719C359.54 276.276 361.015 277.751 361.015 279.571V298.516C361.015 300.336 359.54 301.812 357.719 301.812H338.775C336.955 301.812 335.479 300.336 335.479 298.516V279.571C335.479 277.751 336.955 276.276 338.775 276.276Z" stroke="#263238" stroke-linecap="round" stroke-linejoin="round"/>
<path d="M311.076 276.276H330.021C331.841 276.276 333.317 277.751 333.317 279.571V298.516C333.317 300.336 331.841 301.812 330.021 301.812H311.076C309.256 301.812 307.781 300.336 307.781 298.516V279.571C307.781 277.751 309.256 276.276 311.076 276.276Z" stroke="#263238" stroke-linecap="round" stroke-linejoin="round"/>
<path d="M283.378 276.276H302.322C304.142 276.276 305.618 277.751 305.618 279.571V298.516C305.618 300.336 304.142 301.812 302.322 301.812H283.378C281.558 301.812 280.082 300.336 280.082 298.516V279.571C280.082 277.751 281.558 276.276 283.378 276.276Z" stroke="#263238" stroke-linecap="round" stroke-linejoin="round"/>
<path d="M255.687 276.276H274.632C276.452 276.276 277.927 277.751 277.927 279.571V298.516C277.927 300.336 276.452 301.812 274.632 301.812H255.687C253.867 301.812 252.391 300.336 252.391 298.516V279.571C252.391 277.751 253.867 276.276 255.687 276.276Z" stroke="#263238" stroke-linecap="round" stroke-linejoin="round"/>
<path d="M227.989 276.276H246.933C248.753 276.276 250.229 277.751 250.229 279.571V298.516C250.229 300.336 248.753 301.812 246.933 301.812H227.989C226.168 301.812 224.693 300.336 224.693 298.516V279.571C224.693 277.751 226.168 276.276 227.989 276.276Z" stroke="#263238" stroke-linecap="round" stroke-linejoin="round"/>
<path d="M200.29 276.276H219.235C221.055 276.276 222.53 277.751 222.53 279.571V298.516C222.53 300.336 221.055 301.812 219.235 301.812H200.29C198.47 301.812 196.994 300.336 196.994 298.516V279.571C196.994 277.751 198.47 276.276 200.29 276.276Z" stroke="#263238" stroke-linecap="round" stroke-linejoin="round"/>
<path d="M172.599 276.276H191.544C193.364 276.276 194.84 277.751 194.84 279.571V298.516C194.84 300.336 193.364 301.812 191.544 301.812H172.599C170.779 301.812 169.304 300.336 169.304 298.516V279.571C169.304 277.751 170.779 276.276 172.599 276.276Z" stroke="#263238" stroke-linecap="round" stroke-linejoin="round"/>
<path d="M144.901 276.276H163.845C165.666 276.276 167.141 277.751 167.141 279.571V298.516C167.141 300.336 165.666 301.812 163.845 301.812H144.901C143.081 301.812 141.605 300.336 141.605 298.516V279.571C141.605 277.751 143.081 276.276 144.901 276.276Z" stroke="#263238" stroke-linecap="round" stroke-linejoin="round"/>
<path d="M117.202 276.276H136.147C137.967 276.276 139.443 277.751 139.443 279.571V298.516C139.443 300.336 137.967 301.812 136.147 301.812H117.202C115.382 301.812 113.907 300.336 113.907 298.516V279.571C113.907 277.751 115.382 276.276 117.202 276.276Z" stroke="#263238" stroke-linecap="round" stroke-linejoin="round"/>
<path d="M89.5117 276.276H108.456C110.276 276.276 111.752 277.751 111.752 279.571V298.516C111.752 300.336 110.276 301.812 108.456 301.812H89.5117C87.6915 301.812 86.2159 300.336 86.2159 298.516V279.571C86.2159 277.751 87.6915 276.276 89.5117 276.276Z" stroke="#263238" stroke-linecap="round" stroke-linejoin="round"/>
<path d="M61.8131 276.276H80.7576C82.5778 276.276 84.0533 277.751 84.0533 279.571V298.516C84.0533 300.336 82.5778 301.812 80.7576 301.812H61.8131C59.9929 301.812 58.5173 300.336 58.5173 298.516V279.571C58.5173 277.751 59.9929 276.276 61.8131 276.276Z" stroke="#263238" stroke-linecap="round" stroke-linejoin="round"/>
<path d="M34.1145 276.276H53.059C54.8792 276.276 56.3548 277.751 56.3548 279.571V298.516C56.3548 300.336 54.8792 301.812 53.059 301.812H34.1145C32.2943 301.812 30.8188 300.336 30.8188 298.516V279.571C30.8188 277.751 32.2943 276.276 34.1145 276.276Z" stroke="#263238" stroke-linecap="round" stroke-linejoin="round"/>
<path d="M303.759 182.678V59.5388" stroke="#263238" stroke-linecap="round" stroke-linejoin="round"/>
<path d="M295.587 148.803H299.968V174.307H295.587V148.803Z" fill="#263238" stroke="#263238" stroke-linecap="round" stroke-linejoin="round"/>
<path d="M307.541 148.803H311.922V174.307H307.541V148.803Z" fill="#263238" stroke="#263238" stroke-linecap="round" stroke-linejoin="round"/>
<path d="M362.332 182.678H31.9839" stroke="#263238" stroke-width="2" stroke-linecap="round" stroke-linejoin="round"/>
<path d="M106.9 182.678V59.5388" stroke="#263238" stroke-linecap="round" stroke-linejoin="round"/>
<path d="M109.693 148.803H114.074V174.307H109.693V148.803Z" fill="#263238" stroke="#263238" stroke-linecap="round" stroke-linejoin="round"/>
<path d="M99.1276 148.803H103.509V174.307H99.1276V148.803Z" fill="#263238" stroke="#263238" stroke-linecap="round" stroke-linejoin="round"/>
<path d="M299.298 286.905H289.49C288.625 286.905 287.795 287.249 287.183 287.861C286.571 288.473 286.227 289.303 286.227 290.169V320.956H302.562V290.169C302.562 289.303 302.218 288.473 301.606 287.861C300.994 287.249 300.164 286.905 299.298 286.905Z" fill="white" stroke="#263238" stroke-linecap="round" stroke-linejoin="round"/>
<path d="M299.298 286.905H289.49C288.625 286.905 287.795 287.249 287.183 287.861C286.571 288.473 286.227 289.303 286.227 290.169V295.803H302.562V290.169C302.562 289.303 302.218 288.473 301.606 287.861C300.994 287.249 300.164 286.905 299.298 286.905Z" fill="white" stroke="#263238" stroke-linecap="round" stroke-linejoin="round"/>
<path d="M299.13 297.079V317.628" stroke="#263238" stroke-linecap="round" stroke-linejoin="round"/>
<path d="M293.951 297.079V317.628" stroke="#263238" stroke-linecap="round" stroke-linejoin="round"/>
<path d="M36.8676 277.121H114.76C116.14 277.121 117.258 278.24 117.258 279.619V318.857C117.258 320.236 116.14 321.355 114.76 321.355H36.8676C35.4881 321.355 34.3699 320.236 34.3699 318.857V279.619C34.3699 278.24 35.4881 277.121 36.8676 277.121Z" fill="white" stroke="#263238" stroke-linecap="round" stroke-linejoin="round"/>
<path d="M37.5619 279.906H54.6949V289.076H37.5619V279.906Z" fill="#696969" stroke="#263238" stroke-linecap="round" stroke-linejoin="round"/>
<path d="M50.7847 297.654C50.7847 298.088 50.9134 298.512 51.1545 298.873C51.3957 299.234 51.7384 299.515 52.1394 299.681C52.5404 299.848 52.9816 299.891 53.4073 299.806C53.833 299.722 54.224 299.513 54.5309 299.206C54.8379 298.899 55.0469 298.508 55.1315 298.082C55.2162 297.656 55.1728 297.215 55.0067 296.814C54.8406 296.413 54.5593 296.07 54.1984 295.829C53.8375 295.588 53.4132 295.459 52.9792 295.459C52.3972 295.459 51.839 295.691 51.4275 296.102C51.0159 296.514 50.7847 297.072 50.7847 297.654Z" fill="white" stroke="#263238" stroke-linecap="round" stroke-linejoin="round"/>
<path d="M46.0047 299.841C44.7927 299.841 43.8102 298.858 43.8102 297.646C43.8102 296.434 44.7927 295.452 46.0047 295.452C47.2167 295.452 48.1992 296.434 48.1992 297.646C48.1992 298.858 47.2167 299.841 46.0047 299.841Z" fill="white" stroke="#263238" stroke-linecap="round" stroke-linejoin="round"/>
<path d="M39.0302 299.841C37.8182 299.841 36.8357 298.858 36.8357 297.646C36.8357 296.434 37.8182 295.452 39.0302 295.452C40.2422 295.452 41.2247 296.434 41.2247 297.646C41.2247 298.858 40.2422 299.841 39.0302 299.841Z" fill="white" stroke="#263238" stroke-linecap="round" stroke-linejoin="round"/>
<path d="M50.7847 306.009C50.7832 306.443 50.9105 306.869 51.1507 307.23C51.3909 307.592 51.733 307.875 52.1339 308.042C52.5347 308.21 52.9762 308.254 53.4024 308.17C53.8287 308.087 54.2204 307.878 54.5281 307.572C54.8358 307.265 55.0456 306.874 55.1309 306.448C55.2163 306.022 55.1733 305.581 55.0074 305.179C54.8416 304.778 54.5603 304.434 54.1993 304.193C53.8382 303.951 53.4136 303.823 52.9792 303.823C52.3986 303.823 51.8416 304.053 51.4303 304.462C51.019 304.872 50.7868 305.428 50.7847 306.009Z" fill="white" stroke="#263238" stroke-linecap="round" stroke-linejoin="round"/>
<path d="M43.8182 306.009C43.8166 306.444 43.9442 306.869 44.1847 307.231C44.4252 307.593 44.7679 307.876 45.1692 308.043C45.5705 308.21 46.0124 308.254 46.4388 308.17C46.8653 308.085 47.257 307.876 47.5644 307.569C47.8718 307.261 48.081 306.87 48.1654 306.443C48.2498 306.017 48.2057 305.575 48.0386 305.174C47.8715 304.772 47.589 304.43 47.2269 304.189C46.8648 303.949 46.4394 303.821 46.0047 303.823C45.4254 303.825 44.8705 304.056 44.4609 304.465C44.0513 304.875 43.8203 305.43 43.8182 306.009Z" fill="white" stroke="#263238" stroke-linecap="round" stroke-linejoin="round"/>
<path d="M36.8437 306.009C36.8421 306.444 36.9697 306.869 37.2102 307.231C37.4507 307.593 37.7934 307.876 38.1947 308.043C38.596 308.21 39.0379 308.254 39.4643 308.17C39.8908 308.085 40.2825 307.876 40.5899 307.569C40.8973 307.261 41.1064 306.87 41.1909 306.443C41.2753 306.017 41.2312 305.575 41.0641 305.174C40.897 304.772 40.6145 304.43 40.2524 304.189C39.8903 303.949 39.4649 303.821 39.0302 303.823C38.4509 303.825 37.896 304.056 37.4864 304.465C37.0768 304.875 36.8458 305.43 36.8437 306.009Z" fill="white" stroke="#263238" stroke-linecap="round" stroke-linejoin="round"/>
<path d="M50.7847 314.412C50.7847 314.846 50.9134 315.27 51.1545 315.631C51.3957 315.992 51.7384 316.273 52.1394 316.439C52.5404 316.606 52.9816 316.649 53.4073 316.564C53.833 316.48 54.224 316.271 54.5309 315.964C54.8379 315.657 55.0469 315.266 55.1315 314.84C55.2162 314.414 55.1728 313.973 55.0067 313.572C54.8406 313.171 54.5593 312.829 54.1984 312.587C53.8375 312.346 53.4132 312.218 52.9792 312.218C52.3972 312.218 51.839 312.449 51.4275 312.86C51.0159 313.272 50.7847 313.83 50.7847 314.412Z" fill="white" stroke="#263238" stroke-linecap="round" stroke-linejoin="round"/>
<path d="M43.8182 314.412C43.8182 314.846 43.9471 315.271 44.1886 315.632C44.4301 315.993 44.7733 316.274 45.1748 316.44C45.5762 316.606 46.0179 316.649 46.4438 316.564C46.8697 316.478 47.2607 316.269 47.5673 315.961C47.8739 315.653 48.0822 315.261 48.166 314.835C48.2498 314.409 48.2052 313.967 48.0378 313.567C47.8705 313.166 47.588 312.824 47.2261 312.583C46.8641 312.343 46.4391 312.216 46.0047 312.217C45.4241 312.22 44.8679 312.452 44.4581 312.863C44.0483 313.274 43.8182 313.831 43.8182 314.412Z" fill="white" stroke="#263238" stroke-linecap="round" stroke-linejoin="round"/>
<path d="M36.8437 314.412C36.8437 314.846 36.9726 315.271 37.2141 315.632C37.4555 315.993 37.7988 316.274 38.2002 316.44C38.6017 316.606 39.0433 316.649 39.4692 316.564C39.8951 316.478 40.2861 316.269 40.5927 315.961C40.8993 315.653 41.1077 315.261 41.1915 314.835C41.2752 314.409 41.2306 313.967 41.0633 313.567C40.896 313.166 40.6135 312.824 40.2515 312.583C39.8896 312.343 39.4646 312.216 39.0302 312.217C38.4496 312.22 37.8934 312.452 37.4836 312.863C37.0738 313.274 36.8437 313.831 36.8437 314.412Z" fill="white" stroke="#263238" stroke-linecap="round" stroke-linejoin="round"/>
<path d="M61.446 298.835C61.446 309.512 62.244 318.163 63.2415 318.163C64.239 318.163 65.029 309.512 65.029 298.835C65.029 288.158 64.231 279.508 63.2415 279.508C62.252 279.508 61.446 288.166 61.446 298.835Z" fill="#696969" stroke="#263238" stroke-linecap="round" stroke-linejoin="round"/>
<path d="M72.0833 281.191C73.2404 281.135 74.4135 281.104 75.5946 281.104C96.183 281.104 112.869 289.315 112.869 299.458C112.869 309.6 96.183 317.812 75.5946 317.812C74.4135 317.812 73.2005 317.812 72.0833 317.732V281.191Z" fill="#696969" stroke="#263238" stroke-linecap="round" stroke-linejoin="round"/>
<path d="M323.278 281.503H342.406V287.48H323.278V281.503Z" fill="#263238" stroke="#263238" stroke-linecap="round" stroke-linejoin="round"/>
<path d="M349.245 285.883H316.048L308.938 313.159H356.355L349.245 285.883Z" fill="white" stroke="#263238" stroke-linecap="round" stroke-linejoin="round"/>
<path d="M308.938 312.952H356.355V321.347H308.938V312.952Z" fill="#263238" stroke="#263238" stroke-linecap="round" stroke-linejoin="round"/>
<path d="M315.888 286.482L316.048 285.86H349.245L349.404 286.482C347.01 297.255 340.411 304.988 332.646 304.988C324.882 304.988 318.29 297.279 315.888 286.482Z" fill="#696969" stroke="#263238" stroke-linecap="round" stroke-linejoin="round"/>
<path d="M340.81 305.81H343.603V310.989H340.81V305.81Z" fill="white" stroke="#263238" stroke-linecap="round" stroke-linejoin="round"/>
<path d="M334.434 305.81H337.227V310.989H334.434V305.81Z" fill="white" stroke="#263238" stroke-linecap="round" stroke-linejoin="round"/>
<path d="M328.058 305.81H330.851V310.989H328.058V305.81Z" fill="white" stroke="#263238" stroke-linecap="round" stroke-linejoin="round"/>
<path d="M321.682 305.81H324.475V310.989H321.682V305.81Z" fill="white" stroke="#263238" stroke-linecap="round" stroke-linejoin="round"/>
<path d="M225.036 76.6878C225.036 76.6878 242.137 82.4733 246.231 92.8314C250.325 103.189 239.967 109.933 237.078 111.616C234.189 113.3 232.018 121.99 234.428 133.051C236.838 144.111 244.06 148.213 249.12 147.75C254.179 147.287 255.145 146.784 255.145 146.784C255.145 146.784 254.418 159.792 241.65 165.569C228.882 171.347 223.32 169.176 223.32 169.176C223.32 169.176 201.407 175.919 190.323 173.964C179.239 172.009 173.964 168.705 173.964 168.705C173.964 168.705 167.939 171.355 159.265 166.774C150.591 162.194 147.462 155.211 147.462 155.211C147.462 155.211 159.991 154.972 157.102 141.964C154.213 128.957 153.487 103.908 167.476 88.7297C181.465 73.5517 208.15 65.6116 225.036 76.6878Z" fill="#263238"/>
<path d="M207.711 82.7366C207.711 82.7366 200.529 107.57 185.367 115.846C170.205 124.121 159.831 134.2 159.831 143.193C159.831 152.187 159.472 165.872 142.922 160.111" stroke="#6E6E6E" stroke-linecap="round" stroke-linejoin="round"/>
<path d="M203.035 77.3342C203.035 77.3342 182.878 83.4548 172.807 98.2098C162.736 112.965 165.984 120.163 161.994 128.478C158.004 136.793 152.274 136.761 152.274 136.761" stroke="#6E6E6E" stroke-linecap="round" stroke-linejoin="round"/>
<path d="M205.19 79.8559C205.19 79.8559 187.921 88.4903 181.441 101.45" stroke="#6E6E6E" stroke-linecap="round" stroke-linejoin="round"/>
<path d="M213.864 88.4902C213.864 88.4902 215.3 76.9751 203.426 75.5387" stroke="#6E6E6E" stroke-linecap="round" stroke-linejoin="round"/>
<path d="M237.581 108.289C237.581 108.289 249.096 102.886 242.624 94.2518C236.152 85.6175 216.354 86.3357 216.354 86.3357" stroke="#6E6E6E" stroke-linecap="round" stroke-linejoin="round"/>
<path d="M218.508 93.8927C218.508 93.8927 237.94 100.013 238.299 101.45C238.658 102.886 236.144 102.886 236.144 102.886" stroke="#6E6E6E" stroke-linecap="round" stroke-linejoin="round"/>
<path d="M211.31 79.1377C211.31 79.1377 213.832 75.8978 224.629 78.0604" stroke="#6E6E6E" stroke-linecap="round" stroke-linejoin="round"/>
<path d="M253.764 159.033C253.764 159.033 235.051 163.023 227.494 140.32" stroke="#6E6E6E" stroke-linecap="round" stroke-linejoin="round"/>
<path d="M240.102 168.378C240.102 168.378 226.065 168.378 222.466 153.264" stroke="#6E6E6E" stroke-linecap="round" stroke-linejoin="round"/>
<path d="M177.483 143.919C177.483 143.919 180.005 170.549 163.119 173.445" stroke="#6E6E6E" stroke-linecap="round" stroke-linejoin="round"/>
<path d="M225.036 76.6878C225.036 76.6878 242.137 82.4733 246.231 92.8314C250.325 103.189 239.967 109.933 237.078 111.616C234.189 113.3 232.018 121.99 234.428 133.051C236.838 144.111 244.06 148.213 249.12 147.75C254.179 147.287 255.145 146.784 255.145 146.784C255.145 146.784 254.418 159.792 241.65 165.569C228.882 171.347 223.32 169.176 223.32 169.176C223.32 169.176 201.407 175.919 190.323 173.964C179.239 172.009 173.964 168.705 173.964 168.705C173.964 168.705 167.939 171.355 159.265 166.774C150.591 162.194 147.462 155.211 147.462 155.211C147.462 155.211 159.991 154.972 157.102 141.964C154.213 128.957 153.487 103.908 167.476 88.7297C181.465 73.5517 208.15 65.6116 225.036 76.6878Z" stroke="#263238" stroke-linecap="round" stroke-linejoin="round"/>
<path d="M237.764 184.593C237.764 184.593 250.005 183.572 256.118 190.459C262.231 197.345 291.573 244.02 298.205 253.501C304.836 262.981 304.836 279.771 292.619 282.069C280.401 284.367 268.679 270.594 263.539 264.21C260.951 260.878 258.139 257.726 255.121 254.777C255.121 254.777 257.419 245.082 250.532 229.521C243.645 213.96 238.794 201.718 236.503 195.087C234.213 188.456 237.764 184.593 237.764 184.593Z" fill="white"/>
<path opacity="0.1" d="M247.38 222.283L243.733 197.545C243.733 197.545 271.065 249.638 278.797 260.467C283.458 266.987 291.094 275.557 293.52 281.798C293.225 281.878 292.922 281.957 292.611 282.013C280.361 284.311 268.671 270.538 263.532 264.154C260.943 260.822 258.131 257.67 255.113 254.722C255.113 254.722 257.411 245.026 250.524 229.465C249.418 226.986 248.37 224.592 247.38 222.283Z" fill="black"/>
<path d="M237.764 184.593C237.764 184.593 250.005 183.572 256.118 190.459C262.231 197.345 291.573 244.02 298.205 253.501C304.836 262.981 304.836 279.771 292.619 282.069C280.401 284.367 268.679 270.594 263.539 264.21C260.951 260.878 258.139 257.726 255.121 254.777C255.121 254.777 257.419 245.082 250.532 229.521C243.645 213.96 238.794 201.718 236.503 195.087C234.213 188.456 237.764 184.593 237.764 184.593Z" stroke="#263238" stroke-linecap="round" stroke-linejoin="round"/>
<path d="M220.416 157.046C220.416 157.046 218.883 164.955 220.926 172.607C222.969 180.26 222.203 180.26 227.31 182.295C230.666 183.571 234.191 184.345 237.772 184.593C237.772 184.593 247.204 209.331 254.347 221.07C261.489 232.809 263.531 245.808 260.731 252.439C258.916 256.598 256.496 260.465 253.549 263.915C253.549 263.915 249.471 278.454 251.769 287.855C254.067 297.255 259.669 310.813 261.967 331.218C264.266 351.623 262.989 374.829 262.989 374.829H129.1C129.1 374.829 129.356 349.069 132.165 327.898C134.974 306.727 138.285 304.988 142.842 292.228C147.399 279.468 147.949 278.965 147.949 270.043C147.949 261.122 145.396 237.134 146.162 221.07C146.928 205.006 150.75 192.502 157.382 187.905C164.013 183.309 179.829 181.521 185.695 177.451C191.56 173.381 187.993 147.351 187.993 147.351C187.993 147.351 197.936 153.735 206.099 156.025C210.738 157.416 215.627 157.764 220.416 157.046V157.046Z" fill="white"/>
<path opacity="0.1" d="M196.308 179.55C187.674 184.482 175.432 186.78 163.239 185.136C170.82 182.383 181.242 180.603 185.758 177.459C191.624 173.381 188.057 147.359 188.057 147.359C192.492 150.147 197.15 152.565 201.982 154.589L201.471 161.986C201.471 161.986 207.105 173.326 196.308 179.55Z" fill="black"/>
<path opacity="0.1" d="M160.693 229.537C160.693 229.537 163.271 248.617 158.634 252.232C153.998 255.847 151.412 254.291 151.412 242.432C151.412 230.574 159.664 226.959 160.693 229.537Z" fill="black"/>
<path d="M220.416 157.046C220.416 157.046 218.883 164.955 220.926 172.607C222.969 180.26 222.203 180.26 227.31 182.295C230.666 183.571 234.191 184.345 237.772 184.593C237.772 184.593 247.204 209.331 254.347 221.07C261.489 232.809 263.531 245.808 260.731 252.439C258.916 256.598 256.496 260.465 253.549 263.915C253.549 263.915 249.471 278.454 251.769 287.855C254.067 297.255 259.669 310.813 261.967 331.218C264.266 351.623 262.989 374.829 262.989 374.829H129.1C129.1 374.829 129.356 349.069 132.165 327.898C134.974 306.727 138.285 304.988 142.842 292.228C147.399 279.468 147.949 278.965 147.949 270.043C147.949 261.122 145.396 237.134 146.162 221.07C146.928 205.006 150.75 192.502 157.382 187.905C164.013 183.309 179.829 181.521 185.695 177.451C191.56 173.381 187.993 147.351 187.993 147.351C187.993 147.351 197.936 153.735 206.099 156.025C210.738 157.416 215.627 157.764 220.416 157.046V157.046Z" stroke="#263238" stroke-linecap="round" stroke-linejoin="round"/>
<path d="M220.025 167.388C215.256 169.501 209.856 169.692 204.95 167.923C201.575 166.734 193.427 160.909 188.95 157.597C188.655 151.963 188.025 147.351 188.025 147.351C188.025 147.351 197.968 153.735 206.131 156.025C210.76 157.411 215.637 157.76 220.416 157.046C219.852 160.464 219.721 163.938 220.025 167.388V167.388Z" fill="#263238" stroke="#263238" stroke-linecap="round" stroke-linejoin="round"/>
<path d="M132.165 327.978C133.298 319.439 134.511 314.061 135.859 309.839C189.325 328.888 238.45 320.213 259.23 314.843C260.449 320.274 261.371 325.767 261.991 331.298C264.29 351.703 263.013 374.908 263.013 374.908H129.1C129.1 374.908 129.356 349.109 132.165 327.978Z" fill="#263238" stroke="#263238" stroke-linecap="round" stroke-linejoin="round"/>
<path d="M195.103 372.219C195.103 372.219 183.588 346.204 163.183 335.798" stroke="#6E6E6E" stroke-linecap="round" stroke-linejoin="round"/>
<path d="M199.189 368.5C197.108 360.43 193.018 353.017 187.299 346.954" stroke="#6E6E6E" stroke-linecap="round" stroke-linejoin="round"/>
<path d="M247.5 334.689C247.5 334.689 240.812 348.431 228.18 356.235" stroke="#6E6E6E" stroke-linecap="round" stroke-linejoin="round"/>
<path d="M147.981 270.043C147.981 265.742 147.391 257.962 146.864 249.295C151.748 249.479 158.786 248.88 164.045 244.818C172.974 237.932 177.563 224.669 176.294 210.385C175.416 200.609 171.913 189.278 169.79 183.101C171.762 182.543 174.14 181.944 176.047 181.393C177.156 185.479 178.688 192.111 181.393 199.931C185.982 213.194 194.161 230.534 210.728 230.79C227.294 231.045 240.31 225.914 237.006 211.374C234.612 200.833 231.524 188.958 230.016 183.221C232.546 183.948 235.146 184.408 237.772 184.593C237.772 184.593 247.204 209.331 254.347 221.07C261.489 232.809 263.532 245.808 260.731 252.439C258.916 256.598 256.496 260.465 253.549 263.915C253.549 263.915 249.471 278.454 251.769 287.855C253.724 295.914 258.097 307.007 260.762 322.719C253.844 326.518 237.924 333.093 208.892 334.53C175.935 336.126 144.254 326.917 132.811 323.11C135.468 306.352 138.613 303.902 142.826 292.188C147.47 279.476 147.981 278.965 147.981 270.043Z" fill="#92BCE3"/>
<path opacity="0.1" d="M179.143 333.428C163.415 331.53 147.912 328.087 132.859 323.15C135.516 306.392 138.66 303.942 142.874 292.228C147.47 279.46 147.981 278.965 147.981 270.043C147.981 265.742 147.391 257.961 146.864 249.295C151.748 249.479 158.786 248.88 164.045 244.818C171.099 239.384 175.424 229.96 176.318 219.211C181.768 229.912 192.637 248.633 204.551 254.594C221.581 263.109 232.218 258.321 246.582 252.463C256.956 248.234 260.148 249.008 260.667 252.583C258.87 256.697 256.48 260.526 253.572 263.947C253.572 263.947 252.774 266.939 252.04 271.073C248.425 273.993 243.406 276.978 236.471 280.13C218.915 288.11 189.661 292.898 174.227 301.939C158.794 310.981 171.035 320.03 178.489 331.202C178.908 331.869 179.135 332.64 179.143 333.428V333.428Z" fill="black"/>
<path d="M147.981 270.043C147.981 265.742 147.391 257.962 146.864 249.295C151.748 249.479 158.786 248.88 164.045 244.818C172.974 237.932 177.563 224.669 176.294 210.385C175.416 200.609 171.913 189.278 169.79 183.101C171.762 182.543 174.14 181.944 176.047 181.393C177.156 185.479 178.688 192.111 181.393 199.931C185.982 213.194 194.161 230.534 210.728 230.79C227.294 231.045 240.31 225.914 237.006 211.374C234.612 200.833 231.524 188.958 230.016 183.221C232.546 183.948 235.146 184.408 237.772 184.593C237.772 184.593 247.204 209.331 254.347 221.07C261.489 232.809 263.532 245.808 260.731 252.439C258.916 256.598 256.496 260.465 253.549 263.915C253.549 263.915 249.471 278.454 251.769 287.855C253.724 295.914 258.097 307.007 260.762 322.719C253.844 326.518 237.924 333.093 208.892 334.53C175.935 336.126 144.254 326.917 132.811 323.11C135.468 306.352 138.613 303.902 142.826 292.188C147.47 279.476 147.981 278.965 147.981 270.043Z" stroke="#263238" stroke-linecap="round" stroke-linejoin="round"/>
<path d="M248.433 266.045C248.433 266.045 243.015 268.631 234.069 268.631" stroke="#263238" stroke-linecap="round" stroke-linejoin="round"/>
<path d="M286.658 175.664C286.658 175.664 287.112 171.977 287.456 166.136C287.799 160.294 288.254 155.69 285.453 155.075C282.652 154.461 281.614 157.222 281.614 160.454C281.614 163.686 280.074 170.748 278.422 175.512C276.77 180.276 275.039 182.894 277.624 184.123C280.21 185.351 285.883 180.276 286.658 175.664Z" fill="white" stroke="#263238" stroke-linecap="round" stroke-linejoin="round"/>
<path d="M232.218 167.827C232.218 167.827 237.166 170.772 237.804 174.898C238.442 179.023 236.112 181.968 229.656 181.202C223.201 180.436 223.512 176.414 223.512 176.414L232.218 167.827Z" fill="#92BCE3" stroke="#263238" stroke-linecap="round" stroke-linejoin="round"/>
<path d="M229.09 172.368C229.09 172.368 233.136 174.291 234.293 176.414C235.45 178.537 237.182 180.268 233.136 178.92C229.09 177.571 227.542 172.2 229.09 172.368Z" fill="white" stroke="#263238" stroke-linecap="round" stroke-linejoin="round"/>
<path d="M236.591 175.56C241.331 176.709 243.909 175.273 246.494 175.847C247.057 175.978 247.627 176.074 248.202 176.135C251.873 174.866 254.889 172.727 258.129 170.405C259.374 169.511 260.667 168.586 262.039 167.684C270.219 162.281 283.585 158.794 284.128 158.65C284.352 158.595 284.589 158.631 284.788 158.749C284.986 158.868 285.13 159.06 285.188 159.283C285.246 159.507 285.213 159.745 285.097 159.944C284.98 160.144 284.79 160.29 284.567 160.35C284.431 160.35 270.937 163.901 263.021 169.128C261.68 170.014 260.395 170.932 259.166 171.817C252.91 176.294 244.044 181.186 236.128 178.64C235.949 178.611 235.784 178.527 235.655 178.4C235.527 178.273 235.441 178.109 235.41 177.93C234.189 176.358 236.591 175.56 236.591 175.56Z" fill="white" stroke="#263238" stroke-linecap="round" stroke-linejoin="round"/>
<path d="M235.729 176.597C238.122 177.445 240.696 177.643 243.19 177.172" stroke="#263238" stroke-linecap="round" stroke-linejoin="round"/>
<path d="M289.538 175.919C289.538 175.919 292.858 179.239 292.092 180.763" stroke="#263238" stroke-linecap="round" stroke-linejoin="round"/>
<path d="M267.33 190.969L270.394 187.402C270.394 187.402 268.192 177.922 267.075 175.153C266.544 173.965 266.14 172.723 265.87 171.45C265.072 169.854 264.657 167.061 265.734 165.984C266.684 165.034 267.865 166.192 268.128 166.487H268.168C268.078 166.197 268.058 165.89 268.11 165.592C268.162 165.293 268.285 165.011 268.467 164.768C268.649 164.526 268.886 164.33 269.159 164.198C269.432 164.065 269.732 163.999 270.035 164.005C272.493 163.845 274.664 165.816 274.664 165.816C274.664 165.816 275.103 164.005 276.483 164.005C277.864 164.005 280.633 166.463 281.71 167.843C281.79 167.947 281.862 168.051 281.941 168.171C284.527 170.62 289.514 175.935 289.514 175.935C289.514 175.935 288.238 170.581 285.947 168.282C283.657 165.984 277.528 161.651 278.55 159.616C279.571 157.581 282.628 159.616 282.628 159.616C282.628 159.616 296.401 167.005 296.656 170.07C296.912 173.134 300.487 186.142 299.21 187.418C297.933 188.695 280.856 199.149 280.856 199.149C280.856 199.149 293.361 224.142 297.949 235.115C302.538 246.087 307.134 257.299 307.645 267.25C308.156 277.201 302.059 284.599 291.573 284.599C281.088 284.599 276.523 277.457 274.991 263.683C273.459 249.91 266.069 208.581 265.558 201.439C265.048 194.297 264.29 194.544 267.33 190.969Z" fill="white"/>
<path opacity="0.1" d="M274.999 263.667C273.467 249.894 266.077 208.565 265.566 201.423C265.056 194.281 264.29 194.536 267.346 190.961L270.41 187.394C270.41 187.394 268.208 177.914 267.091 175.145C266.56 173.957 266.156 172.715 265.886 171.442C265.277 170.169 265.029 168.753 265.167 167.349L265.383 167.644C265.383 167.644 274.161 186.724 273.634 190.339C273.227 193.204 292.06 188.575 299.266 187.339V187.394C297.989 188.663 280.912 199.125 280.912 199.125C280.912 199.125 272.134 201.168 273.682 209.419C275.23 217.671 285.317 269.533 292.651 282.037C293.144 282.87 293.71 283.658 294.342 284.391C293.443 284.516 292.537 284.583 291.629 284.591C281.119 284.583 276.531 277.441 274.999 263.667Z" fill="black"/>
<path d="M267.33 190.969L270.394 187.402C270.394 187.402 268.192 177.922 267.075 175.153C266.544 173.965 266.14 172.723 265.87 171.45C265.072 169.854 264.657 167.061 265.734 165.984C266.684 165.034 267.865 166.192 268.128 166.487H268.168C268.078 166.197 268.058 165.89 268.11 165.592C268.162 165.293 268.285 165.011 268.467 164.768C268.649 164.526 268.886 164.33 269.159 164.198C269.432 164.065 269.732 163.999 270.035 164.005C272.493 163.845 274.664 165.816 274.664 165.816C274.664 165.816 275.103 164.005 276.483 164.005C277.864 164.005 280.633 166.463 281.71 167.843C281.79 167.947 281.862 168.051 281.941 168.171C284.527 170.62 289.514 175.935 289.514 175.935C289.514 175.935 288.238 170.581 285.947 168.282C283.657 165.984 277.528 161.651 278.55 159.616C279.571 157.581 282.628 159.616 282.628 159.616C282.628 159.616 296.401 167.005 296.656 170.07C296.912 173.134 300.487 186.142 299.21 187.418C297.933 188.695 280.856 199.149 280.856 199.149C280.856 199.149 293.361 224.142 297.949 235.115C302.538 246.087 307.134 257.299 307.645 267.25C308.156 277.201 302.059 284.599 291.573 284.599C281.088 284.599 276.523 277.457 274.991 263.683C273.459 249.91 266.069 208.581 265.558 201.439C265.048 194.297 264.29 194.544 267.33 190.969Z" stroke="#263238" stroke-linecap="round" stroke-linejoin="round"/>
<path d="M274.688 165.8C274.688 165.8 280.505 174.132 281.734 176.438C282.543 178.23 283.014 180.156 283.122 182.12" stroke="#263238" stroke-linecap="round" stroke-linejoin="round"/>
<path d="M276.052 184.426C275.83 182.084 275.207 179.797 274.209 177.667C272.669 174.283 268.152 166.495 268.152 166.495" stroke="#263238" stroke-linecap="round" stroke-linejoin="round"/>
<path d="M161.539 224.102C161.539 224.102 150.591 269.652 148.404 278.406C146.218 287.16 138.621 301.173 127.449 298.763C116.277 296.353 115.231 282.476 115.479 269.341C115.726 256.206 123.419 226.895 128.893 213.321C134.367 199.747 141.661 189.725 151.716 186.876C161.771 184.027 167.484 184.905 167.484 184.905" fill="white"/>
<path opacity="0.1" d="M115.447 269.341C115.662 256.206 123.387 226.895 128.861 213.321C134.335 199.747 141.629 189.725 151.684 186.876C154.4 186.099 157.168 185.518 159.967 185.136C155.722 186.94 141.613 194.712 133.362 220.775C123.562 251.713 117.402 274.919 127.688 285.748C133.082 291.414 138.062 291.709 143.249 290.121C139.514 295.779 134.12 300.2 127.449 298.763C116.285 296.353 115.231 282.492 115.447 269.341Z" fill="black"/>
<path d="M161.539 224.102C161.539 224.102 150.591 269.652 148.404 278.406C146.218 287.16 138.621 301.173 127.449 298.763C116.277 296.353 115.231 282.476 115.479 269.341C115.726 256.206 123.419 226.895 128.893 213.321C134.367 199.747 141.661 189.725 151.716 186.876C161.771 184.027 167.484 184.905 167.484 184.905" stroke="#263238" stroke-linecap="round" stroke-linejoin="round"/>
<path d="M166.415 218.285L239.959 219.45L230.303 244.866H230.199C228.052 251.25 216.809 256.158 203.251 256.158C190.195 256.158 179.311 251.625 176.581 245.569H176.406L166.415 218.285Z" fill="white" stroke="#263238" stroke-linecap="round" stroke-linejoin="round"/>
<path d="M203.251 229.569C182.902 229.569 166.407 224.517 166.407 218.285C166.407 212.053 182.902 207.001 203.251 207.001C223.599 207.001 240.094 212.053 240.094 218.285C240.094 224.517 223.599 229.569 203.251 229.569Z" fill="white" stroke="#263238" stroke-linecap="round" stroke-linejoin="round"/>
<path d="M203.251 227.606C184.203 227.606 168.761 223.143 168.761 217.639C168.761 212.134 184.203 207.672 203.251 207.672C222.299 207.672 237.74 212.134 237.74 217.639C237.74 223.143 222.299 227.606 203.251 227.606Z" fill="white" stroke="#263238" stroke-linecap="round" stroke-linejoin="round"/>
<path d="M237.182 217.567C237.182 217.567 238.778 211.773 237.62 211.582C236.463 211.39 234.588 214.143 232.729 212.284C230.869 210.425 229.465 207.855 226.903 208.086C224.342 208.318 224.573 211.119 222.913 211.119C221.253 211.119 219.187 208.086 218.253 211.35C217.319 214.614 219.849 219.506 221.517 221.365C223.185 223.225 226.871 222.762 231.995 222.762C237.118 222.762 237.182 217.567 237.182 217.567Z" fill="#92BCE3" stroke="#263238" stroke-linecap="round" stroke-linejoin="round"/>
<path d="M232.026 222.762L233.638 216.043" stroke="#263238" stroke-linecap="round" stroke-linejoin="round"/>
<path d="M229.593 222.602L229.202 211.606" stroke="#263238" stroke-linecap="round" stroke-linejoin="round"/>
<path d="M209.531 211.797C209.531 211.797 211.654 208.709 209.914 206.586C208.174 204.464 207.408 206.203 204.128 206.586C200.849 206.969 201.232 203.889 197.377 205.046C193.523 206.203 192.318 209.076 191.201 209.076C190.084 209.076 187.538 207.528 185.224 209.874C182.91 212.22 183.492 213.545 182.335 213.545C181.178 213.545 179.438 211.997 179.055 214.702C178.672 217.407 179.853 219.139 181.752 219.139C183.652 219.139 187.155 215.859 190.818 216.242C194.481 216.625 195.837 218.173 198.534 217.591C201.232 217.008 201.431 215.667 202.588 215.276C203.745 214.885 207.376 215.468 208.972 214.478C210.568 213.489 208.781 211.773 208.781 211.773L209.531 211.797Z" fill="#92BCE3" stroke="#263238" stroke-linecap="round" stroke-linejoin="round"/>
<path d="M199.66 212.204C199.66 212.204 201.782 209.116 200.043 206.993C198.303 204.871 197.537 206.61 194.257 206.993C190.977 207.376 191.36 204.296 187.506 205.453C183.652 206.61 182.487 209.507 181.33 209.507C180.172 209.507 177.667 207.959 175.352 210.305C173.038 212.651 173.613 213.976 172.456 213.976C171.299 213.976 169.567 212.428 169.176 215.133C168.785 217.838 169.974 219.57 171.881 219.57C173.788 219.57 177.284 216.29 180.946 216.673C184.609 217.056 185.958 218.604 188.663 218.022C191.368 217.439 191.552 216.098 192.709 215.707C193.866 215.316 197.497 215.899 199.093 214.909C200.689 213.92 198.901 212.204 198.901 212.204H199.66Z" fill="#92BCE3" stroke="#263238" stroke-linecap="round" stroke-linejoin="round"/>
<path d="M180.013 210.832L181.752 219.131L178.449 219.681L175.384 212.571" fill="#92BCE3"/>
<path d="M180.013 210.832L181.752 219.131L178.449 219.681L175.384 212.571" stroke="#263238" stroke-linecap="round" stroke-linejoin="round"/>
<path d="M189.661 208.134L189.278 212.571" stroke="#263238" stroke-linecap="round" stroke-linejoin="round"/>
<path d="M200.849 217.774C200.849 217.774 202.971 214.694 201.232 212.571C199.492 210.449 198.726 212.18 195.446 212.571C192.166 212.962 192.557 209.866 188.695 211.023C184.833 212.18 183.684 215.077 182.527 215.077C181.369 215.077 178.856 213.537 176.542 215.875C174.227 218.213 174.81 219.538 173.653 219.538C172.496 219.538 170.756 217.998 170.373 220.695C169.99 223.392 171.171 225.132 173.07 225.132C174.969 225.132 178.473 221.852 182.135 222.235C185.798 222.618 187.155 224.166 189.852 223.592C192.549 223.017 192.749 221.661 193.906 221.277C195.063 220.894 198.694 221.469 200.29 220.479C201.886 219.49 200.09 217.774 200.09 217.774H200.849Z" fill="#92BCE3" stroke="#263238" stroke-linecap="round" stroke-linejoin="round"/>
<path d="M199.508 220.072C195.713 220.072 192.637 218.118 192.637 215.707C192.637 213.297 195.713 211.342 199.508 211.342C203.303 211.342 206.379 213.297 206.379 215.707C206.379 218.118 203.303 220.072 199.508 220.072Z" fill="#808080" stroke="#263238" stroke-linecap="round" stroke-linejoin="round"/>
<path d="M199.66 214.933C199.66 214.933 201.559 212.651 201 212.116C200.442 211.582 197.808 211.43 197.489 212.212C197.17 212.994 199.66 214.933 199.66 214.933Z" fill="white"/>
<path d="M200.482 215.245C200.482 215.245 204.472 214.854 204.839 214.255C205.206 213.657 203.809 212.22 202.636 212.515C201.463 212.811 200.482 215.245 200.482 215.245Z" fill="white"/>
<path d="M200.641 215.827C200.641 215.827 203.681 217.535 204.631 217.311C205.581 217.088 206.427 215.508 205.309 215.125C204.192 214.742 200.641 215.827 200.641 215.827Z" fill="white"/>
<path d="M200.043 216.258C200.043 216.258 199.939 218.836 200.841 219.155C201.742 219.474 204.176 218.867 203.921 218.077C203.666 217.287 200.043 216.258 200.043 216.258Z" fill="white"/>
<path d="M199.101 216.258C199.101 216.258 195.909 217.854 196.108 218.5C196.308 219.147 198.598 219.937 199.388 219.298C200.178 218.66 199.101 216.258 199.101 216.258Z" fill="white"/>
<path d="M198.502 215.819C198.502 215.819 194.512 215.308 193.882 215.819C193.252 216.33 193.754 217.95 195.015 217.934C196.276 217.918 198.502 215.819 198.502 215.819Z" fill="white"/>
<path d="M198.702 215.237C198.702 215.237 196.763 212.97 195.757 212.97C194.752 212.97 193.1 214.279 193.938 214.885C194.776 215.492 198.702 215.237 198.702 215.237Z" fill="white"/>
<path d="M179.446 223.935C175.652 223.935 172.575 221.98 172.575 219.57C172.575 217.159 175.652 215.205 179.446 215.205C183.241 215.205 186.317 217.159 186.317 219.57C186.317 221.98 183.241 223.935 179.446 223.935Z" fill="#808080" stroke="#263238" stroke-linecap="round" stroke-linejoin="round"/>
<path d="M179.598 218.788C179.598 218.788 181.497 216.513 180.939 215.979C180.38 215.444 177.747 215.292 177.427 216.067C177.108 216.841 179.598 218.788 179.598 218.788Z" fill="white"/>
<path d="M180.42 219.099C180.42 219.099 184.41 218.716 184.777 218.109C185.144 217.503 183.747 216.075 182.574 216.37C181.401 216.665 180.42 219.099 180.42 219.099Z" fill="white"/>
<path d="M180.579 219.681C180.579 219.681 183.628 221.389 184.569 221.174C185.511 220.958 186.365 219.362 185.248 218.979C184.131 218.596 180.579 219.681 180.579 219.681Z" fill="white"/>
<path d="M179.981 220.136C179.981 220.136 179.877 222.714 180.779 223.033C181.681 223.352 184.115 222.746 183.859 221.956C183.604 221.166 179.981 220.136 179.981 220.136Z" fill="white"/>
<path d="M179.039 220.136C179.039 220.136 175.847 221.732 176.047 222.371C176.246 223.009 178.537 223.807 179.327 223.169C180.117 222.53 179.039 220.136 179.039 220.136Z" fill="white"/>
<path d="M178.441 219.681C178.441 219.681 174.451 219.171 173.82 219.681C173.19 220.192 173.693 221.82 174.953 221.796C176.214 221.772 178.441 219.681 178.441 219.681Z" fill="white"/>
<path d="M178.608 219.099C178.608 219.099 176.669 216.833 175.664 216.833C174.658 216.833 173.006 218.141 173.844 218.74C174.682 219.338 178.608 219.099 178.608 219.099Z" fill="white"/>
<path d="M205.086 216.41C205.086 216.41 203.41 210.616 204.631 210.425C205.852 210.233 207.823 212.986 209.722 211.127C211.622 209.268 213.066 206.682 215.779 206.929C218.492 207.177 218.173 209.962 219.897 209.962C221.621 209.962 223.783 206.929 224.757 210.193C225.73 213.457 223.057 218.349 221.357 220.208C219.657 222.067 215.771 221.605 210.441 221.605C205.11 221.605 205.086 216.41 205.086 216.41Z" fill="#92BCE3" stroke="#263238" stroke-linecap="round" stroke-linejoin="round"/>
<path d="M210.441 221.605L208.757 214.885" stroke="#263238" stroke-linecap="round" stroke-linejoin="round"/>
<path d="M212.978 221.445L213.377 210.449" stroke="#263238" stroke-linecap="round" stroke-linejoin="round"/>
<path d="M221.684 224.509C217.89 224.509 214.814 222.555 214.814 220.144C214.814 217.734 217.89 215.779 221.684 215.779C225.479 215.779 228.555 217.734 228.555 220.144C228.555 222.555 225.479 224.509 221.684 224.509Z" fill="#808080" stroke="#263238" stroke-linecap="round" stroke-linejoin="round"/>
<path d="M221.844 219.37C221.844 219.37 223.751 217.088 223.193 216.553C222.634 216.019 220.001 215.867 219.681 216.649C219.362 217.431 221.844 219.37 221.844 219.37Z" fill="white"/>
<path d="M222.642 219.673C222.642 219.673 226.632 219.29 226.999 218.692C227.366 218.093 225.97 216.657 224.797 216.952C223.624 217.248 222.642 219.673 222.642 219.673Z" fill="white"/>
<path d="M222.826 220.248C222.826 220.248 225.866 221.956 226.816 221.732C227.765 221.509 228.611 219.929 227.494 219.546C226.377 219.163 222.826 220.248 222.826 220.248Z" fill="white"/>
<path d="M222.219 220.719C222.219 220.719 222.115 223.296 223.017 223.616C223.919 223.935 226.353 223.328 226.097 222.538C225.842 221.748 222.219 220.719 222.219 220.719Z" fill="white"/>
<path d="M221.285 220.711C221.285 220.711 218.093 222.307 218.293 222.953C218.492 223.6 220.783 224.39 221.565 223.751C222.347 223.113 221.285 220.711 221.285 220.711Z" fill="white"/>
<path d="M220.687 220.248C220.687 220.248 216.697 219.737 216.066 220.248C215.436 220.759 215.931 222.379 217.2 222.363C218.468 222.347 220.687 220.248 220.687 220.248Z" fill="white"/>
<path d="M220.854 219.673C220.854 219.673 218.915 217.407 217.902 217.407C216.888 217.407 215.245 218.716 216.09 219.322C216.936 219.929 220.854 219.673 220.854 219.673Z" fill="white"/>
<path d="M219.258 220.057C219.258 220.057 216.066 215.269 208.182 214.471C208.182 214.471 204.32 215.628 205.868 215.819C207.416 216.011 213.194 215.428 217.838 220.256C222.482 225.084 219.258 220.057 219.258 220.057Z" fill="white" stroke="#263238" stroke-linecap="round" stroke-linejoin="round"/>
<path d="M200.729 221.756C200.729 223.991 203.801 225.81 207.6 225.81C211.398 225.81 214.47 223.991 214.47 221.756C214.47 219.522 211.398 217.71 207.6 217.71C203.801 217.71 200.729 219.522 200.729 221.756Z" fill="#808080" stroke="#263238" stroke-linecap="round" stroke-linejoin="round"/>
<path d="M207.751 221.046C207.751 221.046 209.659 218.931 209.1 218.437C208.541 217.942 205.908 217.806 205.589 218.524C205.27 219.243 207.751 221.046 207.751 221.046Z" fill="white"/>
<path d="M208.581 221.325C208.581 221.325 212.571 220.966 212.93 220.408C213.289 219.849 211.909 218.524 210.728 218.812C209.547 219.099 208.581 221.325 208.581 221.325Z" fill="white"/>
<path d="M208.741 221.844C208.741 221.844 211.781 223.44 212.731 223.225C213.68 223.009 214.526 221.549 213.417 221.19C212.308 220.831 208.741 221.844 208.741 221.844Z" fill="white"/>
<path d="M208.134 222.291C208.134 222.291 208.031 224.685 208.932 224.972C209.834 225.259 212.26 224.709 212.005 223.975C211.749 223.241 208.134 222.291 208.134 222.291Z" fill="white"/>
<path d="M207.201 222.283C207.201 222.283 204.009 223.775 204.2 224.358C204.392 224.94 206.69 225.69 207.48 225.108C208.27 224.525 207.201 222.283 207.201 222.283Z" fill="white"/>
<path d="M206.602 221.844C206.602 221.844 202.612 221.373 201.974 221.844C201.335 222.315 201.846 223.823 203.115 223.807C204.384 223.791 206.602 221.844 206.602 221.844Z" fill="white"/>
<path d="M206.77 221.317C206.77 221.317 204.823 219.219 203.817 219.227C202.812 219.235 201.16 220.44 201.998 220.998C202.836 221.557 206.77 221.317 206.77 221.317Z" fill="white"/>
<path d="M185.878 221.948C185.878 224.19 188.95 226.002 192.749 226.002C196.547 226.002 199.62 224.19 199.62 221.948C199.62 219.705 196.539 217.902 192.749 217.902C188.958 217.902 185.878 219.713 185.878 221.948Z" fill="#808080" stroke="#263238" stroke-linecap="round" stroke-linejoin="round"/>
<path d="M192.901 221.23C192.901 221.23 194.808 219.115 194.241 218.628C193.675 218.141 191.049 217.99 190.73 218.708C190.411 219.426 192.901 221.23 192.901 221.23Z" fill="white"/>
<path d="M193.722 221.517C193.722 221.517 197.712 221.166 198.08 220.599C198.447 220.033 197.058 218.716 195.877 219.003C194.696 219.29 193.722 221.517 193.722 221.517Z" fill="white"/>
<path d="M193.914 222.059C193.914 222.059 196.962 223.655 197.904 223.44C198.846 223.225 199.699 221.764 198.582 221.405C197.465 221.046 193.914 222.059 193.914 222.059Z" fill="white"/>
<path d="M193.284 222.482C193.284 222.482 193.18 224.876 194.082 225.164C194.983 225.451 197.409 224.9 197.154 224.166C196.898 223.432 193.284 222.482 193.284 222.482Z" fill="white"/>
<path d="M192.318 222.482C192.318 222.482 189.126 223.967 189.317 224.557C189.509 225.148 191.807 225.882 192.597 225.299C193.387 224.717 192.318 222.482 192.318 222.482Z" fill="white"/>
<path d="M191.751 222.059C191.751 222.059 187.761 221.581 187.123 222.059C186.485 222.538 186.995 224.039 188.256 224.023C189.517 224.007 191.751 222.059 191.751 222.059Z" fill="white"/>
<path d="M191.911 221.517C191.911 221.517 189.972 219.41 188.966 219.418C187.961 219.426 186.309 220.631 187.147 221.19C187.985 221.748 191.911 221.517 191.911 221.517Z" fill="white"/>
<path d="M200.928 215.819C200.928 215.819 202.939 221.198 210.504 223.719C210.504 223.719 214.494 223.456 213.058 222.921C211.622 222.387 205.828 221.653 202.397 215.915C198.965 210.177 200.928 215.819 200.928 215.819Z" fill="white" stroke="#263238" stroke-linecap="round" stroke-linejoin="round"/>
<path d="M182.622 217.854C182.622 217.854 184.633 223.233 192.198 225.754C192.198 225.754 196.188 225.491 194.752 224.956C193.315 224.422 187.522 223.687 184.091 217.958C180.659 212.228 182.622 217.854 182.622 217.854Z" fill="white" stroke="#263238" stroke-linecap="round" stroke-linejoin="round"/>
<path d="M230.901 224.142C230.901 224.142 235.338 221.828 231.859 221.054C228.38 220.28 226.656 224.525 225.882 222.411C225.108 220.296 224.03 219.059 221.581 219.673C219.131 220.288 221.581 222.339 219.019 222.953C216.457 223.568 218.78 218.867 214.135 221.214C209.491 223.56 210.84 226.456 208.326 226.648C205.812 226.839 206.211 222.02 202.931 222.602C199.652 223.185 201.192 223.951 199.069 224.334C196.946 224.717 196.563 222.602 194.441 223.951C192.318 225.299 190.969 226.648 189.812 225.882C188.655 225.116 189.014 224.142 186.916 223.759C184.817 223.376 184.601 222.602 183.061 220.671C181.521 218.74 179.199 221.469 176.885 221.469C174.57 221.469 174.379 221.469 173.222 219.155C172.902 218.494 172.412 217.931 171.802 217.524C171.191 217.117 170.483 216.881 169.751 216.841C169.751 216.841 167.819 218.764 170.325 221.078C172.831 223.392 182.678 228.795 190.387 229.569C198.095 230.343 208.908 231.3 218.357 229.952C227.805 228.603 230.901 224.142 230.901 224.142Z" fill="#92BCE3" stroke="#263238" stroke-linecap="round" stroke-linejoin="round"/>
<path d="M196.108 218.516C196.108 218.516 192.916 213.728 185.032 212.93C185.032 212.93 181.17 214.087 182.718 214.279C184.266 214.471 190.044 213.896 194.688 218.716C199.332 223.536 196.108 218.516 196.108 218.516Z" fill="white" stroke="#263238" stroke-linecap="round" stroke-linejoin="round"/>
<path d="M213.633 90.8763C213.633 90.8763 231.867 99.0159 234.381 105.464C236.894 111.912 235.498 118.375 237.748 125.669C239.998 132.963 244.763 136.61 241.116 146.992C237.469 157.374 224.836 161.858 219.785 164.109C214.993 166.248 209.559 166.449 204.623 164.667C199.835 162.984 185.543 152.043 185.543 152.043C185.543 152.043 184.138 154.006 177.97 151.764C171.801 149.521 168.394 138.293 170.11 133.242C171.825 128.191 179.374 131.838 179.374 131.838C179.374 131.838 215.875 110.236 213.633 90.8763Z" fill="white"/>
<path opacity="0.1" d="M179.406 131.838C185.625 128.018 191.519 123.691 197.026 118.902C195.502 124.544 192.398 137.464 193.188 146.505C194.217 158.363 205.046 163.007 214.327 164.061C215.572 164.197 216.178 164.643 216.306 165.306C212.445 166.24 208.395 166.024 204.655 164.683C199.867 163 185.575 152.059 185.575 152.059C185.575 152.059 184.17 154.022 178.002 151.78C171.833 149.537 168.426 138.309 170.142 133.258C171.857 128.207 179.406 131.838 179.406 131.838Z" fill="black"/>
<path d="M213.633 90.8763C213.633 90.8763 231.867 99.0159 234.381 105.464C236.894 111.912 235.498 118.375 237.748 125.669C239.998 132.963 244.763 136.61 241.116 146.992C237.469 157.374 224.836 161.858 219.785 164.109C214.993 166.248 209.559 166.449 204.623 164.667C199.835 162.984 185.543 152.043 185.543 152.043C185.543 152.043 184.138 154.006 177.97 151.764C171.801 149.521 168.394 138.293 170.11 133.242C171.825 128.191 179.374 131.838 179.374 131.838C179.374 131.838 215.875 110.236 213.633 90.8763Z" stroke="#263238" stroke-linecap="round" stroke-linejoin="round"/>
<path d="M220.926 121.456C221.329 123.528 222.417 125.406 224.015 126.786C226.536 128.749 228.499 130.154 225.978 132.372C223.456 134.591 221.485 133.769 221.485 133.769" stroke="#263238" stroke-linecap="round" stroke-linejoin="round"/>
<path d="M224.294 141.382C224.294 141.382 219.801 144.462 213.353 139.977" stroke="#263238" stroke-linecap="round" stroke-linejoin="round"/>
<path d="M213.912 137.735C213.912 137.735 214.47 139.131 211.949 141.661" stroke="#263238" stroke-linecap="round" stroke-linejoin="round"/>
<path d="M232.713 121.735C231.54 120.947 230.148 120.551 228.736 120.603C227.324 120.654 225.965 121.151 224.852 122.022" stroke="#263238" stroke-linecap="round" stroke-linejoin="round"/>
<path d="M213.066 122.581C213.066 122.581 209.698 119.493 204.647 123.139" stroke="#263238" stroke-linecap="round" stroke-linejoin="round"/>
<path d="M232.433 113.883C232.433 113.883 228.499 108.831 223.456 111.074" stroke="#263238" stroke-width="3" stroke-linecap="round" stroke-linejoin="round"/>
<path d="M215.875 111.361C215.875 111.361 210.544 108.273 205.772 113.883" stroke="#263238" stroke-width="3" stroke-linecap="round" stroke-linejoin="round"/>
<path d="M122.565 282.348C124.689 278.76 127.578 275.684 131.026 273.339C134.474 270.994 138.397 269.438 142.515 268.782C156.743 266.388 170.102 265.934 174.922 263.524C179.742 261.114 182.143 255.863 184.777 252.352C187.877 248.564 191.575 245.307 195.725 242.712C199.005 240.741 200.761 242.281 200.106 244.467C199.452 246.654 197.034 247.971 195.318 250.596C194.19 252.416 193.38 254.416 192.924 256.509C192.924 256.509 197.082 257.164 205.629 251.258C214.175 245.353 220.511 241.18 221.389 243.151C221.914 244.239 222.068 245.47 221.828 246.654C221.828 246.654 225.994 244.028 226.616 246.877C227.238 249.726 222.02 255.655 222.02 255.655C222.02 255.655 220.479 257.85 218.077 260.914C214.889 265.287 210.307 268.444 205.086 269.868C197.856 272.054 191.727 274.025 187.785 275.781C183.843 277.536 159.76 295.268 144.207 300.088C128.654 304.908 121.432 298.332 118.591 292.858C116.873 289.401 116.189 285.522 116.62 281.686" fill="white"/>
<path opacity="0.1" d="M116.652 281.694L122.565 282.348C123.014 281.513 123.526 280.712 124.097 279.954C124.9 282.097 126.12 284.058 127.688 285.724C138.006 296.553 146.936 287.775 158.116 283.665C169.296 279.555 191.632 268.192 202.979 268.711C204.864 268.796 206.753 268.734 208.629 268.527C207.489 269.043 206.316 269.483 205.118 269.844C197.888 272.03 191.759 274.001 187.817 275.757C183.875 277.513 159.791 295.244 144.238 300.064C128.685 304.884 121.464 298.308 118.623 292.834C116.911 289.386 116.227 285.52 116.652 281.694V281.694Z" fill="black"/>
<path d="M122.565 282.348C124.689 278.76 127.578 275.684 131.026 273.339C134.474 270.994 138.397 269.438 142.515 268.782C156.743 266.388 170.102 265.934 174.922 263.524C179.742 261.114 182.143 255.863 184.777 252.352C187.877 248.564 191.575 245.307 195.725 242.712C199.005 240.741 200.761 242.281 200.106 244.467C199.452 246.654 197.034 247.971 195.318 250.596C194.19 252.416 193.38 254.416 192.924 256.509C192.924 256.509 197.082 257.164 205.629 251.258C214.175 245.353 220.511 241.18 221.389 243.151C221.914 244.239 222.068 245.47 221.828 246.654C221.828 246.654 225.994 244.028 226.616 246.877C227.238 249.726 222.02 255.655 222.02 255.655C222.02 255.655 220.479 257.85 218.077 260.914C214.889 265.287 210.307 268.444 205.086 269.868C197.856 272.054 191.727 274.025 187.785 275.781C183.843 277.536 159.76 295.268 144.207 300.088C128.654 304.908 121.432 298.332 118.591 292.858C116.873 289.401 116.189 285.522 116.62 281.686" stroke="#263238" stroke-linecap="round" stroke-linejoin="round"/>
<path d="M221.756 246.654C221.756 246.654 212.42 254.514 210.297 256.397C208.741 257.677 206.997 258.708 205.126 259.454" stroke="#263238" stroke-linecap="round" stroke-linejoin="round"/>
<path d="M224.661 250.748C224.661 250.748 215.715 261.122 209.826 263.691" stroke="#263238" stroke-linecap="round" stroke-linejoin="round"/>
</svg>
