<svg width="179" height="56" viewBox="0 0 179 56" fill="none" xmlns="http://www.w3.org/2000/svg">
<path fill-rule="evenodd" clip-rule="evenodd" d="M0 0H15.4673L21.6543 11.3398C22.1698 12.4198 22.8916 15.2277 21.6543 17.8197C20.4168 20.4116 17.0141 25.3795 15.4673 27.5394L0 0ZM27.8411 0H58.7756L27.8411 55.079L18.5607 42.1192L34.028 17.8197C35.8675 13.9665 34.4255 11.8318 32.3038 8.69066C30.8574 6.54927 29.0951 3.94014 27.8411 0Z" fill="url(#paint0_linear_4_633)"/>
<path fill-rule="evenodd" clip-rule="evenodd" d="M0 0H15.4673L21.6543 11.3398C22.1698 12.4198 22.8916 15.2277 21.6543 17.8197C20.4168 20.4116 17.0141 25.3795 15.4673 27.5394L0 0ZM27.8411 0H58.7756L27.8411 55.079L18.5607 42.1192L34.028 17.8197C35.8675 13.9665 34.4255 11.8318 32.3038 8.69066C30.8574 6.54927 29.0951 3.94014 27.8411 0Z" fill="url(#paint1_linear_4_633)" fill-opacity="0.8"/>
<path fill-rule="evenodd" clip-rule="evenodd" d="M0 0H15.4673L21.6543 11.3398C22.1698 12.4198 22.8916 15.2277 21.6543 17.8197C20.4168 20.4116 17.0141 25.3795 15.4673 27.5394L0 0ZM27.8411 0H58.7756L27.8411 55.079L18.5607 42.1192L34.028 17.8197C35.8675 13.9665 34.4255 11.8318 32.3038 8.69066C30.8574 6.54927 29.0951 3.94014 27.8411 0Z" fill="white"/>
<path d="M100.955 15.68L92.6337 40.25H85.4823L77.1613 15.68H83.2434L89.058 34.23L94.9061 15.68H100.955ZM109.057 15.68V40.25H103.343V15.68H109.057ZM112.229 27.93C112.229 25.5033 112.731 23.345 113.733 21.455C114.736 19.5417 116.128 18.06 117.91 17.01C119.715 15.9367 121.754 15.4 124.026 15.4C126.811 15.4 129.194 16.17 131.177 17.71C133.16 19.25 134.486 21.35 135.154 24.01H128.871C128.404 22.9833 127.735 22.2017 126.866 21.665C126.02 21.1283 125.051 20.86 123.959 20.86C122.199 20.86 120.773 21.5017 119.682 22.785C118.59 24.0683 118.044 25.7833 118.044 27.93C118.044 30.0767 118.59 31.7917 119.682 33.075C120.773 34.3583 122.199 35 123.959 35C125.051 35 126.02 34.7317 126.866 34.195C127.735 33.6583 128.404 32.8767 128.871 31.85H135.154C134.486 34.51 133.16 36.61 131.177 38.15C129.194 39.6667 126.811 40.425 124.026 40.425C121.754 40.425 119.715 39.9 117.91 38.85C116.128 37.7767 114.736 36.295 113.733 34.405C112.731 32.515 112.229 30.3567 112.229 27.93ZM155.529 15.68V20.475H149.314V40.25H143.599V20.475H137.384V15.68H155.529ZM164.011 15.68V30.38C164.011 31.85 164.357 32.9817 165.047 33.775C165.738 34.5683 166.752 34.965 168.089 34.965C169.426 34.965 170.45 34.5683 171.164 33.775C171.875 32.9817 172.233 31.85 172.233 30.38V15.68H177.947V30.345C177.947 32.5383 177.501 34.3933 176.611 35.91C175.718 37.4267 174.515 38.57 173.001 39.34C171.508 40.11 169.837 40.495 167.989 40.495C166.139 40.495 164.479 40.1217 163.009 39.375C161.561 38.605 160.414 37.4617 159.567 35.945C158.72 34.405 158.297 32.5383 158.297 30.345V15.68H164.011Z" fill="white"/>
<defs>
<linearGradient id="paint0_linear_4_633" x1="0" y1="0" x2="44.4573" y2="27.2876" gradientUnits="userSpaceOnUse">
<stop stop-color="#7C79E0"/>
<stop offset="1" stop-color="#412DA8"/>
</linearGradient>
<linearGradient id="paint1_linear_4_633" x1="27.8411" y1="55.079" x2="46.0612" y2="25.0309" gradientUnits="userSpaceOnUse">
<stop stop-color="#D62FF6"/>
<stop offset="1" stop-color="#C22AEA" stop-opacity="0"/>
</linearGradient>
</defs>
</svg>
